<?xml version="1.0" encoding="utf-8"?>
<!-- Generator: Adobe Illustrator 18.1.1, SVG Export Plug-In . SVG Version: 6.00 Build 0)  -->
<svg version="1.1" id="Слой_1" xmlns="http://www.w3.org/2000/svg" xmlns:xlink="http://www.w3.org/1999/xlink" x="0px" y="0px"
	 viewBox="0 0 58.989 61" enable-background="new 0 0 58.989 61" xml:space="preserve">
<g>
	<polygon fill="none" points="15.014,9.147 15.014,12.922 17.373,11.094 	"/>
	<path fill="none" d="M17.786,16.52c0.059,0,0.059,0,0.059,0v-3.834l-5.84,4.424l2.536,2.241L17.786,16.52z"/>
	<path fill="none" d="M19.202,10.563c0.059,0,0.059,0.059,0.059,0.059c0,0.059,0.059,0.059,0.059,0.118c0,0.059,0,0.059,0,0.059
		c0.059,0.059,0.059,0.177,0.059,0.295v6.017l2.654,2.3l3.244-2.831c0.295-0.236,0.708-0.236,1.003,0l3.244,2.831l3.244-2.831
		c0.295-0.236,0.708-0.236,1.003,0l3.244,2.831l2.654-2.359v-5.958c0-0.059,0-0.118,0-0.177c0,0,0.059-0.059,0.059-0.118
		c0-0.059,0-0.059,0-0.059c0-0.059,0.059-0.059,0.059-0.118c0.059,0,0.059-0.059,0.059-0.059l0.059-0.059l0.944-0.767l-2.182-1.829
		l-2.536,2.182c-0.295,0.236-0.708,0.236-1.003,0l-2.536-2.182l-2.536,2.182c-0.295,0.236-0.708,0.236-1.003,0l-2.536-2.182
		l-2.536,2.182c-0.295,0.236-0.708,0.236-1.003,0L20.44,7.908l-2.182,1.829l0.885,0.767L19.202,10.563z"/>
	<polygon fill="none" points="44.035,9.088 41.675,11.035 44.035,12.863 	"/>
	<polygon fill="none" points="46.984,17.169 41.144,12.686 41.144,16.579 44.389,19.411 	"/>
	<path fill="none" d="M44.094,21.003l-3.244-2.831l-3.244,2.831c-0.295,0.236-0.708,0.236-1.003,0l-3.244-2.831l-3.244,2.831
		c-0.295,0.236-0.708,0.236-1.003,0l-3.244-2.831l-3.244,2.831c-0.177,0.118-0.354,0.177-0.531,0.177s-0.413-0.059-0.531-0.177
		l-3.244-2.831l-3.244,2.831c-0.295,0.236-0.708,0.236-1.003,0l-2.418-2.123v34.448h35.923V18.88l-2.477,2.123
		C44.802,21.239,44.389,21.239,44.094,21.003z M25.17,41.777H19.52c-0.048-0.275-0.072-0.516-0.072-0.756
		c0-3.07,3.982-3.562,3.982-5.253c0-0.743-0.576-1.188-1.296-1.188c-0.647,0-1.223,0.456-1.535,1.008l-1.151-0.768
		c0.492-0.912,1.451-1.703,2.818-1.703c1.487,0,2.771,0.911,2.771,2.519c0,2.734-3.813,3.202-3.886,4.81h4.019V41.777z
		 M29.083,41.92c-1.02,0-2.039-0.396-2.734-1.151l0.804-1.163c0.384,0.42,1.031,0.852,1.811,0.852c0.828,0,1.596-0.552,1.596-1.451
		c0-0.888-0.731-1.476-1.703-1.476c-0.456,0-0.936,0.133-1.319,0.36l-0.863-0.312l0.396-4.318h4.485v1.332h-3.142l-0.133,1.402
		c-0.023,0.229-0.06,0.396-0.06,0.396h0.024c0.155-0.084,0.6-0.192,0.911-0.192c1.883,0,2.998,1.26,2.998,2.795
		C32.153,40.673,30.846,41.92,29.083,41.92z M37.076,41.777l-0.938-1.45h-0.463v1.45h-0.89v-3.572h0.89v1.366h0.435l0.868-1.366
		h0.987l-1.134,1.702v0.014l1.274,1.856H37.076z M40.975,38.961h-1.457v2.815h-0.89v-3.572h2.347V38.961z"/>
	<path fill="#1E0F00" d="M25.037,35.636c0-1.607-1.283-2.519-2.771-2.519c-1.367,0-2.326,0.791-2.818,1.703l1.151,0.768
		c0.313-0.552,0.888-1.008,1.535-1.008c0.72,0,1.296,0.444,1.296,1.188c0,1.691-3.982,2.183-3.982,5.253
		c0,0.24,0.024,0.48,0.072,0.756h5.649v-1.331h-4.019C21.223,38.838,25.037,38.371,25.037,35.636z"/>
	<path fill="#1E0F00" d="M29.155,36.2c-0.312,0-0.756,0.108-0.911,0.192h-0.024c0,0,0.036-0.168,0.06-0.396l0.133-1.402h3.142
		v-1.332h-4.485l-0.396,4.318l0.863,0.312c0.384-0.228,0.863-0.36,1.319-0.36c0.972,0,1.703,0.588,1.703,1.476
		c0,0.899-0.768,1.451-1.596,1.451c-0.779,0-1.427-0.432-1.811-0.852l-0.804,1.163c0.695,0.756,1.715,1.151,2.734,1.151
		c1.764,0,3.07-1.247,3.07-2.926C32.153,37.459,31.038,36.2,29.155,36.2z"/>
	<polygon fill="#1E0F00" points="36.831,39.907 37.965,38.205 36.977,38.205 36.109,39.571 35.674,39.571 35.674,38.205 
		34.785,38.205 34.785,41.777 35.674,41.777 35.674,40.327 36.137,40.327 37.076,41.777 38.105,41.777 36.831,39.92 	"/>
	<polygon fill="#1E0F00" points="38.629,41.777 39.518,41.777 39.518,38.961 40.975,38.961 40.975,38.205 38.629,38.205 	"/>
	<path fill="#1E0F00" d="M48.636,16.461l-3.067-2.359V7.436c0-0.295-0.177-0.59-0.472-0.708s-0.59-0.059-0.826,0.118l-2.241,1.888
		l-2.89-2.418c-0.295-0.236-0.708-0.236-1.003,0L35.6,8.498l-2.536-2.182c-0.295-0.236-0.708-0.236-1.003,0l-2.536,2.182
		l-2.536-2.182c-0.295-0.236-0.708-0.236-1.003,0l-2.536,2.182l-2.536-2.182c-0.295-0.236-0.708-0.236-1.003,0l-2.89,2.477
		l-2.3-1.947c-0.236-0.177-0.531-0.236-0.826-0.118c-0.295,0.118-0.472,0.413-0.472,0.708v6.606l-3.067,2.359
		c-0.177,0.118-0.295,0.354-0.295,0.59v37.102c0,0.413,0.354,0.767,0.767,0.767h37.338c0.413,0,0.767-0.354,0.767-0.767V17.051
		C48.931,16.815,48.813,16.579,48.636,16.461z M44.035,9.088v3.775l-2.359-1.829L44.035,9.088z M41.144,12.686l5.84,4.483
		l-2.595,2.242l-3.244-2.831V12.686z M20.44,7.908l2.536,2.182c0.295,0.236,0.708,0.236,1.003,0l2.536-2.182l2.536,2.182
		c0.295,0.236,0.708,0.236,1.003,0l2.536-2.182l2.536,2.182c0.295,0.236,0.708,0.236,1.003,0l2.536-2.182l2.182,1.829l-0.944,0.767
		l-0.059,0.059c0,0,0,0.059-0.059,0.059c0,0.059-0.059,0.059-0.059,0.118c0,0,0,0,0,0.059c0,0.059-0.059,0.118-0.059,0.118
		c0,0.059,0,0.118,0,0.177v5.958l-2.654,2.359l-3.244-2.831c-0.295-0.236-0.708-0.236-1.003,0l-3.244,2.831l-3.244-2.831
		c-0.295-0.236-0.708-0.236-1.003,0l-3.244,2.831l-2.654-2.3v-6.017c0-0.118,0-0.236-0.059-0.295c0,0,0,0,0-0.059
		c0-0.059-0.059-0.059-0.059-0.118c0,0,0-0.059-0.059-0.059l-0.059-0.059l-0.885-0.767L20.44,7.908z M15.014,9.147l2.359,1.947
		l-2.359,1.829V9.147z M17.845,12.686v3.834c0,0,0,0-0.059,0l-3.244,2.831l-2.536-2.241L17.845,12.686z M47.574,53.328H11.651V18.88
		l2.418,2.123c0.295,0.236,0.708,0.236,1.003,0l3.244-2.831l3.244,2.831c0.118,0.118,0.354,0.177,0.531,0.177
		s0.354-0.059,0.531-0.177l3.244-2.831l3.244,2.831c0.295,0.236,0.708,0.236,1.003,0l3.244-2.831l3.244,2.831
		c0.295,0.236,0.708,0.236,1.003,0l3.244-2.831l3.244,2.831c0.295,0.236,0.708,0.236,1.003,0l2.477-2.123V53.328z"/>
</g>
</svg>
