<?xml version="1.0" encoding="utf-8"?>
<!-- Generator: Adobe Illustrator 18.1.1, SVG Export Plug-In . SVG Version: 6.00 Build 0)  -->
<svg version="1.1" id="Слой_1" xmlns="http://www.w3.org/2000/svg" xmlns:xlink="http://www.w3.org/1999/xlink" x="0px" y="0px"
	 viewBox="0 0 58.989 61" enable-background="new 0 0 58.989 61" xml:space="preserve">
<g>
	<path fill="none" d="M25.996,34.203c-1.163,0-1.499,1.308-1.499,2.963c0,1.679,0.336,2.998,1.499,2.998s1.499-1.319,1.499-2.998
		C27.495,35.51,27.159,34.203,25.996,34.203z"/>
	<polygon fill="none" points="52.362,17.211 46.593,12.782 46.593,16.628 49.798,19.426 	"/>
	<path fill="none" d="M13.737,10.684c0.058,0,0.058,0.058,0.058,0.058c0,0.058,0.058,0.058,0.058,0.117s0,0.058,0,0.058
		c0.058,0.058,0.058,0.175,0.058,0.291v5.937l2.138,1.512l2.932-2.073c0.243-0.172,0.568-0.172,0.811,0l2.932,2.073l2.932-2.073
		c0.243-0.172,0.568-0.172,0.811,0l2.932,2.073l2.932-2.073c0.243-0.172,0.568-0.172,0.811,0l2.932,2.073l2.932-2.073
		c0.243-0.172,0.568-0.172,0.811,0l2.932,2.073l2.389-1.69v-5.759c0-0.058,0-0.117,0-0.175c0,0,0.058-0.058,0.058-0.117
		c0-0.058,0-0.058,0-0.058c0-0.058,0.058-0.058,0.058-0.117c0.058,0,0.058-0.058,0.058-0.058l0.058-0.058l0.932-0.758l0.167-0.142
		l-2.463-1.633l-3.172,2.103c-0.235,0.156-0.541,0.156-0.776,0l-3.172-2.103l-3.172,2.103c-0.235,0.156-0.541,0.156-0.776,0
		l-3.172-2.103l-3.172,2.103c-0.235,0.156-0.541,0.156-0.776,0l-3.172-2.103l-3.172,2.103c-0.235,0.156-0.541,0.156-0.776,0
		l-3.172-2.103l-2.704,1.793l0.854,0.74L13.737,10.684z"/>
	<polygon fill="none" points="9.599,9.285 9.599,13.015 11.93,11.208 	"/>
	<path fill="none" d="M12.155,16.73c0.066-0.087,0.149-0.154,0.241-0.2v-3.748l-5.77,4.371l2.506,2.215L12.155,16.73z"/>
	<path fill="none" d="M33.532,34.203c-1.163,0-1.499,1.308-1.499,2.963c0,1.679,0.336,2.998,1.499,2.998s1.499-1.319,1.499-2.998
		C35.031,35.51,34.695,34.203,33.532,34.203z"/>
	<path fill="none" d="M49.507,20.999l-3.205-2.797l-0.205-0.194l-2.945,2.082c-0.121,0.086-0.263,0.129-0.405,0.129
		c-0.142,0-0.284-0.043-0.405-0.129l-2.932-2.073l-2.932,2.073c-0.243,0.172-0.568,0.172-0.811,0l-2.932-2.073l-2.932,2.073
		c-0.243,0.172-0.568,0.172-0.811,0l-2.932-2.073l-2.932,2.073c-0.243,0.172-0.568,0.172-0.811,0l-2.932-2.073l-2.932,2.073
		c-0.243,0.172-0.568,0.172-0.811,0l-2.735-1.934l-0.046,0.046l-3.205,2.797c-0.291,0.233-0.699,0.233-0.991,0l-2.39-2.098v34.035
		h28.789h0.24h17.638V18.901l-2.448,2.098C50.206,21.232,49.798,21.232,49.507,20.999z M18.652,41.579
		c-1.02,0-2.039-0.396-2.734-1.151l0.804-1.163c0.384,0.42,1.031,0.852,1.811,0.852c0.828,0,1.596-0.552,1.596-1.451
		c0-0.888-0.731-1.476-1.703-1.476c-0.456,0-0.936,0.133-1.319,0.36l-0.863-0.312l0.396-4.318h4.485v1.332h-3.142l-0.133,1.402
		c-0.023,0.229-0.06,0.396-0.06,0.396h0.024c0.155-0.084,0.6-0.192,0.911-0.192c1.883,0,2.998,1.26,2.998,2.795
		C21.723,40.331,20.416,41.579,18.652,41.579z M25.996,41.579c-2.326,0-3.094-1.967-3.094-4.413s0.768-4.39,3.094-4.39
		c2.327,0,3.082,1.943,3.082,4.39S28.323,41.579,25.996,41.579z M33.532,41.579c-2.326,0-3.094-1.967-3.094-4.413
		s0.768-4.39,3.094-4.39c2.327,0,3.082,1.943,3.082,4.39S35.859,41.579,33.532,41.579z M41.718,41.435l-0.938-1.45h-0.463v1.45
		h-0.89v-3.572h0.89v1.366h0.435l0.868-1.366h0.987l-1.134,1.702v0.014l1.274,1.856H41.718z M45.616,38.62h-1.457v2.815h-0.89
		v-3.572h2.347V38.62z"/>
	<polygon fill="none" points="49.448,9.227 47.117,11.15 49.448,12.956 	"/>
	<path fill="#1E0F00" d="M18.725,35.858c-0.312,0-0.756,0.108-0.911,0.192h-0.024c0,0,0.036-0.168,0.06-0.396l0.133-1.402h3.142
		v-1.332h-4.485l-0.396,4.318l0.863,0.312c0.384-0.228,0.863-0.36,1.319-0.36c0.972,0,1.703,0.588,1.703,1.476
		c0,0.899-0.768,1.451-1.596,1.451c-0.779,0-1.427-0.432-1.811-0.852l-0.804,1.163c0.695,0.756,1.715,1.151,2.734,1.151
		c1.764,0,3.07-1.247,3.07-2.926C21.723,37.118,20.607,35.858,18.725,35.858z"/>
	<path fill="#1E0F00" d="M25.996,32.776c-2.326,0-3.094,1.943-3.094,4.39s0.768,4.413,3.094,4.413c2.327,0,3.082-1.967,3.082-4.413
		S28.323,32.776,25.996,32.776z M25.996,40.164c-1.163,0-1.499-1.319-1.499-2.998c0-1.655,0.336-2.963,1.499-2.963
		s1.499,1.308,1.499,2.963C27.495,38.844,27.159,40.164,25.996,40.164z"/>
	<path fill="#1E0F00" d="M33.532,32.776c-2.326,0-3.094,1.943-3.094,4.39s0.768,4.413,3.094,4.413c2.327,0,3.082-1.967,3.082-4.413
		S35.859,32.776,33.532,32.776z M33.532,40.164c-1.163,0-1.499-1.319-1.499-2.998c0-1.655,0.336-2.963,1.499-2.963
		s1.499,1.308,1.499,2.963C35.031,38.844,34.695,40.164,33.532,40.164z"/>
	<polygon fill="#1E0F00" points="41.473,39.565 42.606,37.863 41.619,37.863 40.751,39.229 40.316,39.229 40.316,37.863 
		39.427,37.863 39.427,41.435 40.316,41.435 40.316,39.985 40.779,39.985 41.718,41.435 42.747,41.435 41.473,39.579 	"/>
	<polygon fill="#1E0F00" points="43.269,41.435 44.159,41.435 44.159,38.62 45.616,38.62 45.616,37.863 43.269,37.863 	"/>
	<path fill="#1E0F00" d="M53.994,16.512l-3.031-2.331V7.595c0-0.291-0.175-0.583-0.466-0.699c-0.291-0.117-0.583-0.058-0.816,0.117
		L47.583,8.78l-3.189-2.114c-0.235-0.156-0.541-0.156-0.776,0l-3.172,2.103l-3.172-2.103c-0.235-0.156-0.541-0.156-0.776,0
		l-3.172,2.103l-3.172-2.103c-0.235-0.156-0.541-0.156-0.776,0l-3.172,2.103l-3.172-2.103c-0.235-0.156-0.541-0.156-0.776,0
		l-3.172,2.103l-3.172-2.103c-0.235-0.156-0.541-0.156-0.776,0l-3.497,2.318l-0.063-0.048L9.308,7.012
		C9.075,6.837,8.783,6.779,8.492,6.895C8.2,7.012,8.026,7.303,8.026,7.595v6.527l-3.031,2.331c-0.175,0.117-0.291,0.35-0.291,0.583
		v36.658c0,0.408,0.35,0.758,0.758,0.758h29.605h0.24h18.221c0.408,0,0.758-0.35,0.758-0.758v-36.6
		C54.286,16.861,54.169,16.628,53.994,16.512z M49.448,9.227v3.73l-2.331-1.807L49.448,9.227z M46.593,12.782l5.77,4.429
		l-2.564,2.215l-3.205-2.797V12.782z M15.529,8.093l3.172,2.103c0.235,0.156,0.541,0.156,0.776,0l3.172-2.103l3.172,2.103
		c0.235,0.156,0.541,0.156,0.776,0l3.172-2.103l3.172,2.103c0.235,0.156,0.541,0.156,0.776,0l3.172-2.103l3.172,2.103
		c0.235,0.156,0.541,0.156,0.776,0l3.172-2.103l2.463,1.633l-0.167,0.142l-0.932,0.758l-0.058,0.058c0,0,0,0.058-0.058,0.058
		c0,0.058-0.058,0.058-0.058,0.117c0,0,0,0,0,0.058c0,0.058-0.058,0.117-0.058,0.117c0,0.058,0,0.117,0,0.175v5.759l-2.389,1.69
		l-2.932-2.073c-0.243-0.172-0.568-0.172-0.811,0l-2.932,2.073l-2.932-2.073c-0.243-0.172-0.568-0.172-0.811,0l-2.932,2.073
		l-2.932-2.073c-0.243-0.172-0.568-0.172-0.811,0l-2.932,2.073l-2.932-2.073c-0.243-0.172-0.568-0.172-0.811,0l-2.932,2.073
		l-2.138-1.512v-5.937c0-0.117,0-0.233-0.058-0.291c0,0,0,0,0-0.058s-0.058-0.058-0.058-0.117c0,0,0-0.058-0.058-0.058l-0.058-0.058
		l-0.854-0.74L15.529,8.093z M9.599,9.285l2.331,1.923l-2.331,1.807V9.285z M12.397,12.782v3.748
		c-0.092,0.046-0.175,0.113-0.241,0.2l-3.022,2.638l-2.506-2.215L12.397,12.782z M52.945,52.936H35.307h-0.24H6.277V18.901
		l2.39,2.098c0.291,0.233,0.699,0.233,0.991,0l3.205-2.797l0.046-0.046l2.735,1.934c0.243,0.172,0.568,0.172,0.811,0l2.932-2.073
		l2.932,2.073c0.243,0.172,0.568,0.172,0.811,0l2.932-2.073l2.932,2.073c0.243,0.172,0.568,0.172,0.811,0l2.932-2.073l2.932,2.073
		c0.243,0.172,0.568,0.172,0.811,0l2.932-2.073l2.932,2.073c0.121,0.086,0.263,0.129,0.405,0.129c0.142,0,0.284-0.043,0.405-0.129
		l2.945-2.082l0.205,0.194l3.205,2.797c0.291,0.233,0.699,0.233,0.991,0l2.448-2.098V52.936z"/>
</g>
</svg>
