<?xml version="1.0" encoding="utf-8"?>
<!-- Generator: Adobe Illustrator 18.1.1, SVG Export Plug-In . SVG Version: 6.00 Build 0)  -->
<svg version="1.1" id="Слой_1" xmlns="http://www.w3.org/2000/svg" xmlns:xlink="http://www.w3.org/1999/xlink" x="0px" y="0px"
	 viewBox="0 0 45.833 46.667" enable-background="new 0 0 45.833 46.667" xml:space="preserve">
<g>
	<path fill="#1E0F00" d="M40.352,32.152l-5.283-9.057c-0.238-0.397-0.715-0.516-1.073-0.278c-0.397,0.199-0.516,0.715-0.278,1.073
		l5.323,9.096c0.278,0.477,0.278,1.073,0,1.589c-0.278,0.516-0.794,0.794-1.39,0.794H23.748l3.853-3.138
		c0.358-0.278,0.397-0.794,0.119-1.112c-0.278-0.318-0.794-0.397-1.112-0.119l-5.521,4.449c-0.159,0.119-0.278,0.278-0.357,0.437
		c0,0.04,0,0.079-0.04,0.119v0.04v0.04v0.04c0,0.04,0,0.04,0,0.079v0.04c0,0,0,0,0,0.04s0,0.04,0,0.079c0,0.04,0,0.04,0.04,0.079
		c0,0.04,0,0.04,0.04,0.079c0,0.04,0.04,0.04,0.04,0.079l0.04,0.04c0.04,0.04,0.079,0.079,0.119,0.079c0,0,0,0,0.04,0.04l5.68,4.29
		c0.159,0.119,0.318,0.159,0.477,0.159c0.238,0,0.477-0.119,0.636-0.318c0.278-0.358,0.199-0.834-0.159-1.112l-3.813-2.86h13.784
		c1.152,0,2.185-0.596,2.781-1.589C40.948,34.337,40.948,33.145,40.352,32.152z"/>
	<path fill="#1E0F00" d="M16.519,16.024c0-0.04,0-0.04,0-0.079v-0.04v-0.04c0-0.04,0-0.04-0.04-0.079v-0.04l-0.04-0.04l-0.04-0.04
		c0,0,0,0-0.04-0.04l-0.04-0.04l-0.04-0.04c0,0,0,0-0.04-0.04l-0.04-0.04c0,0-0.04,0-0.04-0.04c0,0,0,0-0.04,0c0,0-0.04,0-0.04-0.04
		c0,0-0.04,0-0.04-0.04c0,0,0,0-0.04,0c0,0-0.04,0-0.079,0s-0.04,0-0.079,0c0,0,0,0-0.04,0s-0.04,0-0.079,0c-0.04,0-0.04,0-0.079,0
		h-0.04c-0.04,0-0.04,0-0.079,0h-0.04l-6.713,2.383c-0.397,0.159-0.636,0.596-0.477,0.993c0.119,0.318,0.437,0.516,0.755,0.516
		c0.079,0,0.199,0,0.278-0.04l4.687-1.629l-8.54,14.578c-0.596,0.993-0.596,2.185,0,3.178c0.596,0.993,1.629,1.589,2.781,1.589
		h7.706c0.437,0,0.794-0.357,0.794-0.794S16.4,35.33,15.963,35.33H8.217c-0.596,0-1.112-0.278-1.39-0.794
		c-0.278-0.477-0.278-1.073,0-1.589l8.342-14.26l0.516,4.727c0.04,0.397,0.397,0.715,0.794,0.715c0.04,0,0.04,0,0.079,0
		c0.437-0.04,0.755-0.437,0.715-0.874l-0.755-7.15C16.519,16.064,16.519,16.064,16.519,16.024z"/>
	<path fill="#1E0F00" d="M22.914,7.047c0.596,0,1.112,0.318,1.39,0.794l5.879,10.169l-4.886-1.589
		c-0.397-0.119-0.874,0.119-0.993,0.516c-0.119,0.397,0.079,0.874,0.516,0.993l6.872,2.224c0.04,0,0.04,0,0.04,0h0.04
		c0.04,0,0.079,0,0.119,0s0.04,0,0.079,0c0.04,0,0.119-0.04,0.159-0.04h0.04h0.04c0.04,0,0.079-0.04,0.119-0.04
		c0.04,0,0.04,0,0.04,0c0-0.04,0.04-0.04,0.04-0.04c0-0.04,0.04-0.04,0.04-0.04c0-0.04,0.04-0.04,0.04-0.04
		c0.04,0,0.04-0.04,0.079-0.079c0.04-0.04,0.04-0.04,0.04-0.04c0.04-0.04,0.079-0.079,0.079-0.119v-0.04v-0.04c0-0.04,0-0.04,0-0.04
		c0-0.04,0-0.04,0-0.079c0-0.04,0-0.04,0-0.079l0.596-7.031c0.04-0.437-0.278-0.834-0.715-0.874s-0.834,0.278-0.874,0.715
		l-0.397,4.528l-5.641-9.732c-0.556-0.993-1.589-1.589-2.741-1.589c-1.112,0-2.145,0.596-2.741,1.589l-3.019,5.164
		c-0.238,0.357-0.119,0.834,0.278,1.073c0.357,0.238,0.834,0.119,1.073-0.278l3.019-5.164C21.842,7.325,22.358,7.047,22.914,7.047z"
		/>
</g>
</svg>
