<?xml version="1.0" encoding="utf-8"?>
<!-- Generator: Adobe Illustrator 18.1.1, SVG Export Plug-In . SVG Version: 6.00 Build 0)  -->
<svg version="1.1" id="Слой_1" xmlns="http://www.w3.org/2000/svg" xmlns:xlink="http://www.w3.org/1999/xlink" x="0px" y="0px"
	 viewBox="0 0 28.5 54" enable-background="new 0 0 28.5 54" xml:space="preserve">
<g>
	<path fill="none" d="M14.251,4.113c0.664,0,1.27-0.094,1.753-0.212v-1.8h-3.505v1.8C12.98,4.019,13.587,4.113,14.251,4.113z"/>
	<path fill="none" d="M14.25,48.958c3.321,0,5.08-0.607,5.9-1.029V33.705c-0.184,0.004-0.391,0.006-0.618,0.006
		c-2.819,0-7.681-0.389-11.182-2.747v16.963H8.35C9.17,48.351,10.929,48.958,14.25,48.958z"/>
	<path fill="none" d="M16.609,11.717V5.572c-0.623,0.165-1.441,0.306-2.358,0.306c-0.917,0-1.735-0.141-2.358-0.306v6.146
		c0,0.265-0.118,0.518-0.323,0.682L5.41,17.44v31.9c0.435,0.541,2.494,2.558,8.839,2.558c6.316,0,8.387-2,8.84-2.558h0.001v-31.9
		l-6.158-5.04C16.727,12.235,16.609,11.982,16.609,11.717z M20.962,31.904c0.245-0.022,0.488,0.064,0.669,0.232
		c0.181,0.167,0.284,0.402,0.284,0.648v15.648c0,0.294-0.146,0.567-0.389,0.731c-1.054,0.711-3.171,1.559-7.276,1.559
		c-4.104,0-6.222-0.847-7.275-1.558C6.732,49,6.586,48.726,6.586,48.433V29.108c0-0.357,0.215-0.679,0.545-0.815
		c0.329-0.137,0.709-0.061,0.961,0.191c3.125,3.125,9.042,3.463,11.44,3.463C20.407,31.947,20.956,31.904,20.962,31.904z"/>
	<path fill="#1E0F00" d="M24.53,16.34l-6.158-5.04V4.348c0-0.3-0.153-0.576-0.405-0.741c-0.065-0.041-0.13-0.076-0.2-0.1V1.219
		c0-0.488-0.4-0.882-0.882-0.882h-5.27c-0.482,0-0.882,0.394-0.882,0.882v2.294c-0.07,0.023-0.135,0.053-0.2,0.094
		c-0.253,0.159-0.405,0.441-0.405,0.741V11.3L3.97,16.34c-0.206,0.171-0.323,0.418-0.323,0.682v32.588
		c0,0.141,0.036,0.276,0.094,0.406c0.194,0.37,2.111,3.646,10.51,3.646c8.398,0,10.316-3.276,10.51-3.646
		c0.059-0.129,0.094-0.265,0.094-0.406V17.022C24.854,16.758,24.736,16.511,24.53,16.34z M16.003,2.102v1.8
		c-0.482,0.118-1.089,0.212-1.753,0.212s-1.27-0.094-1.753-0.212v-1.8H16.003z M23.091,49.34H23.09
		c-0.453,0.559-2.523,2.558-8.84,2.558c-6.346,0-8.404-2.017-8.839-2.558v-31.9l6.158-5.04c0.206-0.165,0.323-0.418,0.323-0.682
		V5.572c0.623,0.165,1.441,0.306,2.358,0.306c0.917,0,1.735-0.141,2.358-0.306v6.146c0,0.265,0.118,0.518,0.323,0.682l6.158,5.04
		V49.34z"/>
	<path fill="#1E0F00" d="M7.131,28.293c-0.33,0.136-0.545,0.458-0.545,0.815v19.325c0,0.293,0.146,0.567,0.389,0.731
		c1.053,0.711,3.171,1.558,7.275,1.558c4.105,0,6.222-0.848,7.276-1.559c0.243-0.164,0.389-0.438,0.389-0.731V32.784
		c0-0.246-0.102-0.481-0.284-0.648c-0.181-0.168-0.423-0.254-0.669-0.232c-0.006,0-0.556,0.043-1.43,0.043
		c-2.398,0-8.315-0.338-11.44-3.463C7.839,28.232,7.46,28.156,7.131,28.293z M8.35,30.965c3.501,2.358,8.363,2.747,11.182,2.747
		c0.227,0,0.434-0.002,0.618-0.006v14.223c-0.82,0.422-2.579,1.029-5.9,1.029c-3.321,0-5.08-0.607-5.899-1.029H8.35V30.965z"/>
</g>
</svg>
