<?xml version="1.0" encoding="utf-8"?>
<!-- Generator: Adobe Illustrator 18.1.1, SVG Export Plug-In . SVG Version: 6.00 Build 0)  -->
<svg version="1.1" id="Слой_1" xmlns="http://www.w3.org/2000/svg" xmlns:xlink="http://www.w3.org/1999/xlink" x="0px" y="0px"
	 viewBox="0 0 35.668 40" enable-background="new 0 0 35.668 40" xml:space="preserve">
<g>
	<polygon fill="none" points="30.854,11.291 17.834,3.773 12.356,6.936 25.376,14.453 	"/>
	<polygon fill="none" points="3.781,28.113 16.801,35.631 16.801,20.596 3.781,13.079 	"/>
	<polygon fill="none" points="10.292,8.128 4.813,11.291 17.834,18.808 23.312,15.645 	"/>
	<polygon fill="none" points="26.409,19.178 24.344,20.37 24.344,17.433 18.866,20.596 18.866,35.631 31.887,28.113 31.887,13.078 
		26.409,16.241 	"/>
	<path fill="#1E0F00" d="M17.834,1.389L1.717,10.695v18.611l16.117,9.305l16.117-9.305V10.695L17.834,1.389z M17.834,3.773
		l13.02,7.518l-5.478,3.163l-13.02-7.518L17.834,3.773z M16.801,35.631l-13.02-7.517V13.079l13.02,7.517V35.631z M4.813,11.291
		l5.478-3.163l13.021,7.517l-5.478,3.163L4.813,11.291z M31.887,28.113l-13.021,7.518V20.596l5.478-3.163v2.937l2.065-1.192v-2.937
		l5.478-3.163V28.113z"/>
</g>
</svg>
