<?xml version="1.0" encoding="utf-8"?>
<!-- Generator: Adobe Illustrator 18.1.1, SVG Export Plug-In . SVG Version: 6.00 Build 0)  -->
<svg version="1.1" id="Слой_1" xmlns="http://www.w3.org/2000/svg" xmlns:xlink="http://www.w3.org/1999/xlink" x="0px" y="0px"
	 viewBox="0 0 31.5 30" enable-background="new 0 0 31.5 30" xml:space="preserve">
<g>
	<rect x="4.197" y="13.597" fill="none" width="23.105" height="11.807"/>
	<polygon fill="none" points="27.303,11.597 27.303,7.204 22.053,7.204 22.053,8.597 20.053,8.597 20.053,7.204 17.053,7.204 
		17.053,8.597 15.053,8.597 15.053,7.204 12.053,7.204 12.053,8.597 10.053,8.597 10.053,7.204 4.197,7.204 4.197,11.597 	"/>
	<path fill="#1E0F00" d="M22.053,5.204V2.597h-2v2.607h-3V2.597h-2v2.607h-3V2.597h-2v2.607H2.197v22.199h27.105V5.204H22.053z
		 M10.053,7.204v1.393h2V7.204h3v1.393h2V7.204h3v1.393h2V7.204h5.25v4.393H4.197V7.204H10.053z M4.197,25.403V13.597h23.105v11.807
		H4.197z"/>
</g>
</svg>
