<?xml version="1.0" encoding="utf-8"?>
<!-- Generator: Adobe Illustrator 18.1.1, SVG Export Plug-In . SVG Version: 6.00 Build 0)  -->
<svg version="1.1" id="Слой_1" xmlns="http://www.w3.org/2000/svg" xmlns:xlink="http://www.w3.org/1999/xlink" x="0px" y="0px"
	 viewBox="0 0 56.917 45.167" enable-background="new 0 0 56.917 45.167" xml:space="preserve">
<g>
	<path fill="none" d="M27.627,7.722l-3.192,1.756c-0.112,0.061-0.253,0.028-0.325-0.077l-3.656-5.269l-9.6,10.89h24.988
		L27.627,7.722z"/>
	<path fill="none" d="M27.167,35.877h3.355l8.246-8.991v-9.77H5.882l5.052,18.761h1.415c0.464-3.742,3.609-6.535,7.409-6.535
		C23.557,29.342,26.702,32.136,27.167,35.877z M18.394,20.882c0,0.138-0.112,0.25-0.25,0.25h-1.604c-0.138,0-0.25-0.112-0.25-0.25
		v-1.604c0-0.138,0.112-0.25,0.25-0.25h1.604c0.138,0,0.25,0.112,0.25,0.25V20.882z M21.613,20.882c0,0.138-0.112,0.25-0.25,0.25
		h-1.604c-0.138,0-0.25-0.112-0.25-0.25v-1.604c0-0.138,0.112-0.25,0.25-0.25h1.604c0.138,0,0.25,0.112,0.25,0.25V20.882z
		 M24.821,20.882c0,0.138-0.112,0.25-0.25,0.25h-1.604c-0.138,0-0.25-0.112-0.25-0.25v-1.604c0-0.138,0.112-0.25,0.25-0.25h1.604
		c0.138,0,0.25,0.112,0.25,0.25V20.882z"/>
	<path fill="none" d="M19.758,38.053c0.677,0,1.227-0.555,1.227-1.236c0-0.676-0.55-1.227-1.227-1.227s-1.227,0.55-1.227,1.227
		C18.532,37.498,19.081,38.053,19.758,38.053z"/>
	<path fill="none" d="M19.758,42.186c2.942,0,5.351-2.405,5.369-5.362c0-2.974-2.408-5.378-5.369-5.378s-5.37,2.409-5.37,5.37
		S16.797,42.186,19.758,42.186z M19.758,33.486c1.842,0,3.34,1.499,3.34,3.34s-1.498,3.341-3.34,3.341s-3.341-1.499-3.341-3.341
		S17.916,33.486,19.758,33.486z"/>
	<path fill="#1E0F00" d="M19.758,40.167c1.842,0,3.34-1.499,3.34-3.341s-1.498-3.34-3.34-3.34s-3.341,1.499-3.341,3.34
		S17.916,40.167,19.758,40.167z M18.532,36.816c0-0.676,0.55-1.227,1.227-1.227s1.227,0.55,1.227,1.227
		c0,0.682-0.55,1.236-1.227,1.236S18.532,37.498,18.532,36.816z"/>
	<path fill="#1E0F00" d="M53.457,10.2h-7.106c-0.123,0-0.228,0.09-0.247,0.211l-3.982,25.466h-8.744l7.421-8.094
		c0.042-0.046,0.065-0.106,0.065-0.169V15.262c0-0.138-0.112-0.25-0.25-0.25h-1.599l-10.962-9.74
		c-0.08-0.07-0.193-0.083-0.287-0.032l-2.872,1.584l-4.055-5.838c-0.044-0.063-0.114-0.103-0.19-0.107
		c-0.078-0.015-0.151,0.026-0.202,0.084L8.042,15.012H3.459c-0.078,0-0.151,0.036-0.198,0.098c-0.048,0.062-0.063,0.142-0.043,0.217
		l6.053,22.469c0.029,0.109,0.128,0.185,0.241,0.185h2.874c0.568,3.612,3.7,6.309,7.372,6.309s6.804-2.696,7.372-6.309h16.583
		c0.123,0,0.228-0.09,0.247-0.211l3.973-25.466h5.524c0.138,0,0.25-0.112,0.25-0.25V10.45C53.707,10.311,53.595,10.2,53.457,10.2z
		 M20.453,4.132l3.656,5.269c0.072,0.105,0.213,0.137,0.325,0.077l3.192-1.756l8.215,7.3H10.854L20.453,4.132z M12.349,35.877
		h-1.415L5.882,17.117h32.887v9.77l-8.246,8.991h-3.355c-0.465-3.741-3.61-6.535-7.409-6.535
		C15.958,29.342,12.813,32.136,12.349,35.877z M19.758,31.446c2.961,0,5.369,2.405,5.369,5.378
		c-0.019,2.957-2.427,5.362-5.369,5.362c-2.961,0-5.37-2.409-5.37-5.37S16.797,31.446,19.758,31.446z"/>
	<path fill="#1E0F00" d="M21.363,19.028h-1.604c-0.138,0-0.25,0.112-0.25,0.25v1.604c0,0.138,0.112,0.25,0.25,0.25h1.604
		c0.138,0,0.25-0.112,0.25-0.25v-1.604C21.613,19.14,21.5,19.028,21.363,19.028z"/>
	<path fill="#1E0F00" d="M24.571,19.028h-1.604c-0.138,0-0.25,0.112-0.25,0.25v1.604c0,0.138,0.112,0.25,0.25,0.25h1.604
		c0.138,0,0.25-0.112,0.25-0.25v-1.604C24.821,19.14,24.708,19.028,24.571,19.028z"/>
	<path fill="#1E0F00" d="M18.144,19.028h-1.604c-0.138,0-0.25,0.112-0.25,0.25v1.604c0,0.138,0.112,0.25,0.25,0.25h1.604
		c0.138,0,0.25-0.112,0.25-0.25v-1.604C18.394,19.14,18.282,19.028,18.144,19.028z"/>
</g>
</svg>
