<?xml version="1.0" encoding="utf-8"?>
<!-- Generator: Adobe Illustrator 18.1.1, SVG Export Plug-In . SVG Version: 6.00 Build 0)  -->
<svg version="1.1" id="Слой_1" xmlns="http://www.w3.org/2000/svg" xmlns:xlink="http://www.w3.org/1999/xlink" x="0px" y="0px"
	 viewBox="0 0 44 30" enable-background="new 0 0 44 30" xml:space="preserve">
<g>
	<polygon fill="none" points="24.173,13.516 32.648,6.595 26.511,3.371 13.545,9.1 	"/>
	<polygon fill="none" points="23.509,15.406 11.494,10.414 5.397,20.292 10.005,26.024 26.674,26.775 	"/>
	<polygon fill="none" points="34.282,7.842 25.48,15.031 28.617,26.296 34.259,22.864 38.99,14.042 	"/>
	<path fill="#1E0F00" d="M35.116,5.632l-8.529-4.481L10.464,8.276L2.952,20.443l6.059,7.539l19.256,0.868l7.497-4.56l5.595-10.434
		L35.116,5.632z M32.648,6.595l-8.476,6.921L13.545,9.1l12.966-5.73L32.648,6.595z M5.397,20.292l6.097-9.878l12.015,4.993
		l3.166,11.369l-16.67-0.751L5.397,20.292z M34.259,22.864l-5.643,3.432L25.48,15.031l8.802-7.189l4.708,6.2L34.259,22.864z"/>
</g>
</svg>
