<?xml version="1.0" encoding="utf-8"?>
<!-- Generator: Adobe Illustrator 18.1.1, SVG Export Plug-In . SVG Version: 6.00 Build 0)  -->
<svg version="1.1" id="Слой_1" xmlns="http://www.w3.org/2000/svg" xmlns:xlink="http://www.w3.org/1999/xlink" x="0px" y="0px"
	 viewBox="0 0 44 54" enable-background="new 0 0 44 54" xml:space="preserve">
<g>
	<polygon fill="none" points="24.603,4.328 24.603,10.723 30.952,10.723 	"/>
	<path fill="none" d="M30.121,28.972c0.547,0,1.086,0.051,1.62,0.128V11.837h-7.695c-0.308,0-0.557-0.249-0.557-0.557V3.574H4.265
		c-0.307,0-0.557,0.25-0.557,0.557v37.825c0,0.307,0.25,0.557,0.557,0.557h14.8c-0.149-0.729-0.228-1.484-0.228-2.256
		c0-0.469,0.029-0.942,0.086-1.402C19.621,33.221,24.435,28.972,30.121,28.972z M8.444,15.201h18.561
		c0.308,0,0.557,0.249,0.557,0.557s-0.249,0.557-0.557,0.557H8.444c-0.307,0-0.557-0.249-0.557-0.557S8.137,15.201,8.444,15.201z
		 M8.444,19.006h18.561c0.308,0,0.557,0.249,0.557,0.557s-0.249,0.557-0.557,0.557H8.444c-0.307,0-0.557-0.25-0.557-0.557
		S8.137,19.006,8.444,19.006z M8.444,22.811h18.561c0.308,0,0.557,0.249,0.557,0.557s-0.249,0.557-0.557,0.557H8.444
		c-0.307,0-0.557-0.249-0.557-0.557S8.137,22.811,8.444,22.811z M8.444,26.616h18.561c0.308,0,0.557,0.25,0.557,0.557
		c0,0.308-0.249,0.557-0.557,0.557H8.444c-0.307,0-0.557-0.25-0.557-0.557C7.888,26.866,8.137,26.616,8.444,26.616z M16.035,35.341
		H8.444c-0.307,0-0.557-0.249-0.557-0.557s0.249-0.557,0.557-0.557h7.591c0.307,0,0.557,0.249,0.557,0.557
		S16.343,35.341,16.035,35.341z M18.68,31.535H8.444c-0.307,0-0.557-0.249-0.557-0.557s0.249-0.557,0.557-0.557H18.68
		c0.307,0,0.557,0.249,0.557,0.557C19.237,31.286,18.988,31.535,18.68,31.535z"/>
	<path fill="none" d="M33.915,30.816c-1.204-0.486-2.481-0.731-3.794-0.731c-5.125,0-9.464,3.829-10.093,8.906
		c-0.052,0.415-0.078,0.841-0.078,1.265c0,0.881,0.125,1.732,0.336,2.548c0.045,0.08,0.077,0.168,0.077,0.272
		c0,0-0.003,0.005-0.003,0.012c1.23,4.233,5.136,7.339,9.761,7.339c5.608,0,10.171-4.562,10.171-10.169
		C40.291,36.079,37.788,32.374,33.915,30.816z M35.933,40.812h-5.255v5.255c0,0.308-0.249,0.557-0.557,0.557
		s-0.557-0.249-0.557-0.557v-5.255h-5.255c-0.308,0-0.557-0.249-0.557-0.557s0.249-0.557,0.557-0.557h5.255v-5.255
		c0-0.308,0.249-0.557,0.557-0.557s0.557,0.249,0.557,0.557v5.255h5.255c0.308,0,0.557,0.249,0.557,0.557
		S36.24,40.812,35.933,40.812z"/>
	<path fill="#1E0F00" d="M35.933,39.698h-5.255v-5.255c0-0.308-0.249-0.557-0.557-0.557s-0.557,0.249-0.557,0.557v5.255h-5.255
		c-0.308,0-0.557,0.249-0.557,0.557s0.249,0.557,0.557,0.557h5.255v5.255c0,0.308,0.249,0.557,0.557,0.557s0.557-0.249,0.557-0.557
		v-5.255h5.255c0.308,0,0.557-0.249,0.557-0.557S36.24,39.698,35.933,39.698z"/>
	<path fill="#1E0F00" d="M34.332,29.783c-0.481-0.194-0.976-0.341-1.476-0.466V11.289l-0.001-0.003l0.001-0.006
		c0-0.165-0.076-0.31-0.19-0.412L24.48,2.624c-0.105-0.105-0.247-0.164-0.395-0.164H4.265c-0.921,0-1.67,0.75-1.67,1.671v37.826
		c0,0.921,0.75,1.671,1.67,1.671h15.087c1.437,4.581,5.72,7.913,10.769,7.913c6.223,0,11.285-5.062,11.285-11.284
		C41.406,35.622,38.628,31.511,34.332,29.783z M24.603,4.328l6.349,6.395h-6.349V4.328z M19.065,42.513h-14.8
		c-0.307,0-0.557-0.249-0.557-0.557V4.131c0-0.307,0.25-0.557,0.557-0.557h19.224v7.707c0,0.307,0.249,0.557,0.557,0.557h7.695V29.1
		c-0.534-0.077-1.073-0.128-1.62-0.128c-5.686,0-10.5,4.249-11.197,9.883c-0.057,0.461-0.086,0.933-0.086,1.402
		C18.837,41.029,18.916,41.784,19.065,42.513z M30.121,50.426c-4.625,0-8.531-3.105-9.761-7.339c0-0.007,0.003-0.012,0.003-0.012
		c0-0.104-0.032-0.192-0.077-0.272c-0.212-0.816-0.336-1.667-0.336-2.548c0-0.424,0.026-0.849,0.078-1.265
		c0.629-5.077,4.968-8.906,10.093-8.906c1.314,0,2.59,0.246,3.794,0.731c3.873,1.557,6.376,5.263,6.376,9.44
		C40.292,45.864,35.729,50.426,30.121,50.426z"/>
	<path fill="#1E0F00" d="M16.035,34.227H8.444c-0.307,0-0.557,0.249-0.557,0.557s0.249,0.557,0.557,0.557h7.591
		c0.307,0,0.557-0.249,0.557-0.557S16.343,34.227,16.035,34.227z"/>
	<path fill="#1E0F00" d="M19.237,30.978c0-0.308-0.249-0.557-0.557-0.557H8.444c-0.307,0-0.557,0.249-0.557,0.557
		s0.249,0.557,0.557,0.557H18.68C18.988,31.535,19.237,31.286,19.237,30.978z"/>
	<path fill="#1E0F00" d="M8.444,16.315h18.561c0.308,0,0.557-0.249,0.557-0.557s-0.249-0.557-0.557-0.557H8.444
		c-0.307,0-0.557,0.249-0.557,0.557S8.137,16.315,8.444,16.315z"/>
	<path fill="#1E0F00" d="M8.444,20.12h18.561c0.308,0,0.557-0.25,0.557-0.557s-0.249-0.557-0.557-0.557H8.444
		c-0.307,0-0.557,0.249-0.557,0.557S8.137,20.12,8.444,20.12z"/>
	<path fill="#1E0F00" d="M8.444,27.73h18.561c0.308,0,0.557-0.249,0.557-0.557c0-0.307-0.249-0.557-0.557-0.557H8.444
		c-0.307,0-0.557,0.25-0.557,0.557C7.888,27.48,8.137,27.73,8.444,27.73z"/>
	<path fill="#1E0F00" d="M8.444,23.925h18.561c0.308,0,0.557-0.249,0.557-0.557s-0.249-0.557-0.557-0.557H8.444
		c-0.307,0-0.557,0.249-0.557,0.557S8.137,23.925,8.444,23.925z"/>
</g>
</svg>
