<?xml version="1.0" encoding="utf-8"?>
<!-- Generator: Adobe Illustrator 18.1.1, SVG Export Plug-In . SVG Version: 6.00 Build 0)  -->
<svg version="1.1" id="Слой_1" xmlns="http://www.w3.org/2000/svg" xmlns:xlink="http://www.w3.org/1999/xlink" x="0px" y="0px"
	 viewBox="0 0 43.5 54" enable-background="new 0 0 43.5 54" xml:space="preserve">
<g>
	<path fill="none" d="M29.871,28.972c0.547,0,1.086,0.051,1.62,0.128V11.837h-7.695c-0.308,0-0.557-0.25-0.557-0.557V3.574H4.015
		c-0.307,0-0.557,0.25-0.557,0.557v37.825c0,0.307,0.25,0.557,0.557,0.557h14.8c-0.149-0.729-0.228-1.484-0.228-2.256
		c0-0.469,0.029-0.942,0.086-1.402C19.371,33.221,24.185,28.972,29.871,28.972z M8.194,15.201h18.561
		c0.308,0,0.557,0.25,0.557,0.557c0,0.307-0.249,0.557-0.557,0.557H8.194c-0.307,0-0.557-0.25-0.557-0.557
		C7.638,15.45,7.887,15.201,8.194,15.201z M8.194,19.006h18.561c0.308,0,0.557,0.25,0.557,0.557c0,0.307-0.249,0.557-0.557,0.557
		H8.194c-0.307,0-0.557-0.25-0.557-0.557C7.638,19.256,7.887,19.006,8.194,19.006z M8.194,22.811h18.561
		c0.308,0,0.557,0.249,0.557,0.557c0,0.307-0.249,0.557-0.557,0.557H8.194c-0.307,0-0.557-0.25-0.557-0.557
		C7.638,23.061,7.887,22.811,8.194,22.811z M8.194,26.616h18.561c0.308,0,0.557,0.25,0.557,0.557c0,0.308-0.249,0.557-0.557,0.557
		H8.194c-0.307,0-0.557-0.25-0.557-0.557C7.638,26.866,7.887,26.616,8.194,26.616z M15.785,35.341H8.194
		c-0.307,0-0.557-0.249-0.557-0.557c0-0.308,0.249-0.557,0.557-0.557h7.591c0.307,0,0.557,0.249,0.557,0.557
		C16.342,35.092,16.093,35.341,15.785,35.341z M18.43,31.535H8.194c-0.307,0-0.557-0.249-0.557-0.557
		c0-0.308,0.249-0.557,0.557-0.557H18.43c0.307,0,0.557,0.249,0.557,0.557C18.987,31.286,18.737,31.535,18.43,31.535z"/>
	<path fill="none" d="M32.496,39.079c-0.73-0.209-1.229-0.7-1.459-1.406c-0.624-0.115-1.674-0.104-2.233-0.002
		c-0.251,0.741-0.759,1.228-1.454,1.418l-0.001,1.307c-0.01,0.78-0.031,2.396,2.017,3.405l0.558,0.262l0.568-0.267
		c2.037-1.003,2.016-2.62,2.006-3.396L32.496,39.079z"/>
	<polygon fill="none" points="24.353,4.328 24.353,10.723 30.702,10.723 	"/>
	<path fill="none" d="M33.665,30.816c-1.204-0.485-2.481-0.731-3.794-0.731c-5.125,0-9.464,3.829-10.093,8.906
		c-0.052,0.415-0.078,0.841-0.078,1.265c0,0.881,0.125,1.732,0.336,2.548c0.045,0.08,0.077,0.168,0.077,0.272
		c0,0-0.003,0.005-0.003,0.012c1.23,4.233,5.136,7.339,9.761,7.339c5.608,0,10.171-4.562,10.17-10.169
		C40.041,36.079,37.539,32.374,33.665,30.816z M31.419,46.975l-1.269,0.596c-0.073,0.035-0.153,0.052-0.233,0.052
		s-0.16-0.017-0.233-0.052l-1.259-0.591c-4.141-2.039-4.098-5.397-4.079-6.831l0.002-3.033c0-0.281,0.212-0.517,0.492-0.547
		c1.331-0.142,1.521-0.729,1.721-1.676c0.042-0.198,0.188-0.357,0.383-0.414c0.526-0.156,1.944-0.297,2.974-0.297
		c1.028,0,2.446,0.142,2.973,0.297c0.194,0.057,0.341,0.216,0.383,0.414c0.2,0.947,0.39,1.535,1.722,1.676
		c0.279,0.03,0.491,0.266,0.491,0.547l0.002,3.033C35.505,41.583,35.548,44.941,31.419,46.975z"/>
	<path fill="none" d="M34.385,37.585c-1.521-0.326-1.918-1.31-2.112-2.117c-0.557-0.095-1.566-0.187-2.356-0.187
		c-0.791,0-1.8,0.092-2.357,0.187c-0.194,0.808-0.592,1.791-2.112,2.117l-0.002,2.578c-0.017,1.33-0.053,4.098,3.456,5.825
		l1.016,0.478l1.025-0.482c3.498-1.723,3.462-4.491,3.445-5.821L34.385,37.585z M30.968,44.786l-0.812,0.382
		c-0.074,0.035-0.154,0.052-0.234,0.052s-0.16-0.017-0.234-0.052l-0.801-0.376c-2.68-1.319-2.649-3.563-2.639-4.407l0.001-1.759
		c0-0.282,0.213-0.519,0.494-0.547c0.433-0.045,0.909-0.179,1.065-0.92c0.042-0.198,0.201-0.417,0.396-0.474
		c0.441-0.13,1.124-0.209,1.718-0.209s1.276,0.079,1.66,0.192c0.194,0.057,0.399,0.232,0.441,0.43
		c0.168,0.801,0.644,0.935,0.988,0.972c0.28,0.029,0.583,0.274,0.583,0.556l0.001,1.766C33.607,41.228,33.637,43.472,30.968,44.786z
		"/>
	<path fill="#1E0F00" d="M8.194,27.73h18.561c0.308,0,0.557-0.249,0.557-0.557c0-0.307-0.249-0.557-0.557-0.557H8.194
		c-0.307,0-0.557,0.25-0.557,0.557C7.638,27.48,7.887,27.73,8.194,27.73z"/>
	<path fill="#1E0F00" d="M34.082,29.783c-0.481-0.194-0.976-0.341-1.476-0.465V11.289l-0.001-0.003l0.001-0.006
		c0-0.165-0.076-0.31-0.19-0.412L24.23,2.624c-0.105-0.105-0.247-0.164-0.395-0.164H4.015c-0.921,0-1.671,0.75-1.671,1.671v37.826
		c0,0.921,0.75,1.67,1.671,1.67h15.087c1.437,4.581,5.72,7.913,10.769,7.913c6.223,0,11.285-5.062,11.285-11.284
		C41.156,35.622,38.378,31.511,34.082,29.783z M24.353,4.328l6.349,6.395h-6.349V4.328z M18.815,42.513h-14.8
		c-0.307,0-0.557-0.249-0.557-0.557V4.131c0-0.307,0.25-0.557,0.557-0.557h19.224v7.707c0,0.307,0.249,0.557,0.557,0.557h7.695V29.1
		c-0.534-0.077-1.073-0.128-1.62-0.128c-5.686,0-10.5,4.249-11.197,9.883c-0.057,0.461-0.086,0.933-0.086,1.402
		C18.587,41.029,18.666,41.784,18.815,42.513z M29.871,50.426c-4.625,0-8.531-3.105-9.761-7.339c0-0.007,0.003-0.012,0.003-0.012
		c0-0.104-0.032-0.192-0.077-0.272c-0.212-0.816-0.336-1.667-0.336-2.548c0-0.424,0.026-0.849,0.078-1.265
		c0.629-5.077,4.967-8.906,10.093-8.906c1.313,0,2.59,0.246,3.794,0.731c3.873,1.557,6.376,5.263,6.376,9.44
		C40.042,45.864,35.479,50.426,29.871,50.426z"/>
	<path fill="#1E0F00" d="M15.785,34.227H8.194c-0.307,0-0.557,0.249-0.557,0.557c0,0.308,0.249,0.557,0.557,0.557h7.591
		c0.307,0,0.557-0.249,0.557-0.557C16.342,34.476,16.093,34.227,15.785,34.227z"/>
	<path fill="#1E0F00" d="M18.987,30.978c0-0.308-0.25-0.557-0.557-0.557H8.194c-0.307,0-0.557,0.249-0.557,0.557
		c0,0.308,0.249,0.557,0.557,0.557H18.43C18.737,31.535,18.987,31.286,18.987,30.978z"/>
	<path fill="#1E0F00" d="M8.194,23.925h18.561c0.308,0,0.557-0.25,0.557-0.557c0-0.307-0.249-0.557-0.557-0.557H8.194
		c-0.307,0-0.557,0.249-0.557,0.557C7.638,23.675,7.887,23.925,8.194,23.925z"/>
	<path fill="#1E0F00" d="M8.194,20.12h18.561c0.308,0,0.557-0.25,0.557-0.557c0-0.307-0.249-0.557-0.557-0.557H8.194
		c-0.307,0-0.557,0.25-0.557,0.557C7.638,19.871,7.887,20.12,8.194,20.12z"/>
	<path fill="#1E0F00" d="M8.194,16.315h18.561c0.308,0,0.557-0.25,0.557-0.557c0-0.307-0.249-0.557-0.557-0.557H8.194
		c-0.307,0-0.557,0.25-0.557,0.557C7.638,16.065,7.887,16.315,8.194,16.315z"/>
	<path fill="#1E0F00" d="M35.485,37.116c0-0.281-0.212-0.517-0.491-0.547c-1.332-0.142-1.521-0.729-1.722-1.676
		c-0.042-0.198-0.188-0.357-0.383-0.414c-0.526-0.156-1.944-0.297-2.973-0.297c-1.029,0-2.447,0.142-2.974,0.297
		c-0.194,0.057-0.341,0.216-0.383,0.414c-0.2,0.947-0.39,1.535-1.721,1.676c-0.28,0.03-0.492,0.266-0.492,0.547l-0.002,3.033
		c-0.019,1.434-0.062,4.792,4.079,6.831l1.259,0.591c0.073,0.035,0.153,0.052,0.233,0.052s0.16-0.017,0.233-0.052l1.269-0.596
		c4.13-2.034,4.087-5.392,4.068-6.826L35.485,37.116z M30.942,45.984l-1.025,0.482l-1.016-0.478
		c-3.509-1.727-3.473-4.495-3.456-5.825l0.002-2.578c1.521-0.326,1.918-1.31,2.112-2.117c0.558-0.095,1.566-0.187,2.357-0.187
		c0.79,0,1.8,0.092,2.356,0.187c0.194,0.808,0.592,1.791,2.112,2.117l0.002,2.578C34.404,41.493,34.44,44.261,30.942,45.984z"/>
	<path fill="#1E0F00" d="M33.595,38.625c0-0.281-0.303-0.526-0.583-0.556c-0.345-0.037-0.82-0.17-0.988-0.972
		c-0.042-0.197-0.247-0.373-0.441-0.43c-0.384-0.113-1.066-0.192-1.66-0.192s-1.276,0.079-1.718,0.209
		c-0.194,0.057-0.354,0.275-0.396,0.474c-0.156,0.741-0.633,0.875-1.065,0.92c-0.281,0.029-0.494,0.265-0.494,0.547l-0.001,1.759
		c-0.011,0.844-0.041,3.087,2.639,4.407l0.801,0.376c0.074,0.035,0.154,0.052,0.234,0.052s0.16-0.017,0.234-0.052l0.812-0.382
		c2.669-1.314,2.639-3.557,2.628-4.395L33.595,38.625z M30.491,43.795l-0.568,0.267L29.365,43.8
		c-2.048-1.009-2.026-2.625-2.017-3.405l0.001-1.307c0.695-0.19,1.203-0.677,1.454-1.418c0.56-0.102,1.609-0.113,2.233,0.002
		c0.23,0.707,0.729,1.197,1.459,1.406l0.001,1.32C32.506,41.175,32.528,42.791,30.491,43.795z"/>
</g>
</svg>
