<?xml version="1.0" encoding="utf-8"?>
<!-- Generator: Adobe Illustrator 18.1.1, SVG Export Plug-In . SVG Version: 6.00 Build 0)  -->
<svg version="1.1" id="Слой_1" xmlns="http://www.w3.org/2000/svg" xmlns:xlink="http://www.w3.org/1999/xlink" x="0px" y="0px"
	 viewBox="0 0 45.75 54" enable-background="new 0 0 45.75 54" xml:space="preserve">
<g>
	<path fill="none" d="M31.989,41.443v-1.999c0-1.156,0.214-2.185,0.636-3.056c0.106-0.24,0.157-0.476,0.157-0.738
		c0-1.042-0.892-1.875-1.954-1.745c-0.797,0.08-1.454,0.737-1.534,1.53c-0.028,0.341,0.006,0.628,0.105,0.875
		c0.463,1.158,0.688,2.192,0.688,3.161v1.97H31.989z"/>
	<path fill="none" d="M34.265,42.259h-1.46h-3.534h-1.46c-0.384,0-0.696,0.313-0.696,0.696v1.743h7.847v-1.743
		C34.962,42.571,34.649,42.259,34.265,42.259z"/>
	<path fill="none" d="M30.996,28.972c0.547,0,1.086,0.051,1.62,0.128V11.837h-7.695c-0.308,0-0.557-0.249-0.557-0.557V3.574H5.14
		c-0.307,0-0.557,0.25-0.557,0.557v37.825c0,0.307,0.25,0.557,0.557,0.557h14.8c-0.149-0.729-0.228-1.484-0.228-2.256
		c0-0.469,0.029-0.942,0.086-1.402C20.496,33.221,25.31,28.972,30.996,28.972z M9.319,15.201H27.88c0.308,0,0.557,0.249,0.557,0.557
		c0,0.307-0.249,0.557-0.557,0.557H9.319c-0.307,0-0.557-0.249-0.557-0.557C8.763,15.45,9.012,15.201,9.319,15.201z M9.319,19.006
		H27.88c0.308,0,0.557,0.249,0.557,0.557c0,0.307-0.249,0.557-0.557,0.557H9.319c-0.307,0-0.557-0.249-0.557-0.557
		C8.763,19.256,9.012,19.006,9.319,19.006z M9.319,22.811H27.88c0.308,0,0.557,0.249,0.557,0.557c0,0.307-0.249,0.557-0.557,0.557
		H9.319c-0.307,0-0.557-0.249-0.557-0.557C8.763,23.061,9.012,22.811,9.319,22.811z M9.319,26.616H27.88
		c0.308,0,0.557,0.249,0.557,0.557c0,0.308-0.249,0.557-0.557,0.557H9.319c-0.307,0-0.557-0.249-0.557-0.557
		C8.763,26.865,9.012,26.616,9.319,26.616z M16.91,35.341H9.319c-0.307,0-0.557-0.249-0.557-0.557s0.249-0.557,0.557-0.557h7.591
		c0.307,0,0.557,0.249,0.557,0.557S17.218,35.341,16.91,35.341z M19.555,31.535H9.319c-0.307,0-0.557-0.249-0.557-0.557
		c0-0.308,0.249-0.557,0.557-0.557h10.236c0.307,0,0.557,0.249,0.557,0.557C20.112,31.286,19.862,31.535,19.555,31.535z"/>
	<polygon fill="none" points="25.478,4.328 25.478,10.724 31.827,10.724 	"/>
	<path fill="none" d="M34.79,30.816c-1.204-0.485-2.481-0.731-3.794-0.731c-5.125,0-9.464,3.829-10.093,8.906
		c-0.052,0.415-0.078,0.841-0.078,1.265c0,0.882,0.125,1.732,0.336,2.548c0.045,0.08,0.077,0.168,0.077,0.272
		c0,0-0.003,0.005-0.003,0.012c1.23,4.233,5.136,7.339,9.761,7.339c5.608,0,10.171-4.562,10.17-10.169
		C41.166,36.079,38.664,32.374,34.79,30.816z M35.042,46.619h-8.007v-0.816h8.007V46.619z M35.806,45.515h-9.508v-2.56
		c0-0.834,0.679-1.512,1.513-1.512h1.46v-1.999c0-0.893-0.201-1.822-0.614-2.841c-0.155-0.362-0.214-0.779-0.179-1.273
		c0.151-1.181,1.104-2.12,2.265-2.239c0.1-0.011,0.2-0.017,0.299-0.017c1.41,0,2.557,1.156,2.557,2.577
		c0,0.361-0.075,0.708-0.236,1.095c-0.375,0.836-0.557,1.728-0.557,2.727v1.97h1.488c0.834,0,1.513,0.678,1.513,1.512V45.515z"/>
	<path fill="#1E0F00" d="M9.319,23.925H27.88c0.308,0,0.557-0.249,0.557-0.557c0-0.307-0.249-0.557-0.557-0.557H9.319
		c-0.307,0-0.557,0.249-0.557,0.557C8.763,23.675,9.012,23.925,9.319,23.925z"/>
	<path fill="#1E0F00" d="M16.91,34.227H9.319c-0.307,0-0.557,0.249-0.557,0.557s0.249,0.557,0.557,0.557h7.591
		c0.307,0,0.557-0.249,0.557-0.557S17.218,34.227,16.91,34.227z"/>
	<path fill="#1E0F00" d="M9.319,16.315H27.88c0.308,0,0.557-0.249,0.557-0.557c0-0.307-0.249-0.557-0.557-0.557H9.319
		c-0.307,0-0.557,0.249-0.557,0.557C8.763,16.065,9.012,16.315,9.319,16.315z"/>
	<path fill="#1E0F00" d="M35.207,29.783c-0.481-0.194-0.976-0.341-1.476-0.466V11.289l-0.001-0.003l0.001-0.006
		c0-0.165-0.076-0.31-0.19-0.412l-8.185-8.244C25.25,2.519,25.109,2.46,24.96,2.46H5.14c-0.921,0-1.671,0.749-1.671,1.671v37.826
		c0,0.921,0.75,1.67,1.671,1.67h15.087c1.437,4.581,5.72,7.913,10.769,7.913c6.223,0,11.285-5.062,11.285-11.284
		C42.281,35.622,39.503,31.511,35.207,29.783z M25.478,4.328l6.349,6.395h-6.349V4.328z M19.94,42.513H5.14
		c-0.307,0-0.557-0.249-0.557-0.557V4.131c0-0.307,0.25-0.557,0.557-0.557h19.224v7.707c0,0.307,0.249,0.557,0.557,0.557h7.695
		v17.262c-0.534-0.077-1.073-0.128-1.62-0.128c-5.686,0-10.5,4.249-11.197,9.883c-0.057,0.461-0.086,0.933-0.086,1.402
		C19.712,41.029,19.791,41.784,19.94,42.513z M30.996,50.426c-4.625,0-8.531-3.105-9.761-7.339c0-0.007,0.003-0.012,0.003-0.012
		c0-0.104-0.032-0.192-0.077-0.272c-0.212-0.816-0.336-1.667-0.336-2.548c0-0.424,0.026-0.849,0.078-1.265
		c0.629-5.077,4.967-8.906,10.093-8.906c1.313,0,2.59,0.246,3.794,0.731c3.873,1.558,6.376,5.263,6.376,9.44
		C41.167,45.864,36.604,50.426,30.996,50.426z"/>
	<path fill="#1E0F00" d="M20.112,30.978c0-0.308-0.25-0.557-0.557-0.557H9.319c-0.307,0-0.557,0.249-0.557,0.557
		c0,0.308,0.249,0.557,0.557,0.557h10.236C19.862,31.535,20.112,31.286,20.112,30.978z"/>
	<path fill="#1E0F00" d="M9.319,27.73H27.88c0.308,0,0.557-0.249,0.557-0.557c0-0.307-0.249-0.557-0.557-0.557H9.319
		c-0.307,0-0.557,0.249-0.557,0.557C8.763,27.48,9.012,27.73,9.319,27.73z"/>
	<path fill="#1E0F00" d="M9.319,20.12H27.88c0.308,0,0.557-0.249,0.557-0.557c0-0.307-0.249-0.557-0.557-0.557H9.319
		c-0.307,0-0.557,0.249-0.557,0.557C8.763,19.871,9.012,20.12,9.319,20.12z"/>
	<path fill="#1E0F00" d="M34.294,41.443h-1.488v-1.97c0-0.999,0.182-1.89,0.557-2.727c0.161-0.387,0.236-0.734,0.236-1.095
		c0-1.421-1.146-2.577-2.557-2.577c-0.099,0-0.199,0.006-0.299,0.017c-1.161,0.119-2.113,1.058-2.265,2.239
		c-0.035,0.494,0.023,0.911,0.179,1.273c0.413,1.019,0.614,1.948,0.614,2.841v1.999h-1.46c-0.834,0-1.513,0.678-1.513,1.512v2.56
		h9.508v-2.56C35.806,42.121,35.128,41.443,34.294,41.443z M27.115,44.698v-1.743c0-0.384,0.313-0.696,0.696-0.696h1.46h3.534h1.46
		c0.384,0,0.696,0.313,0.696,0.696v1.743H27.115z M29.399,36.312c-0.1-0.248-0.134-0.534-0.105-0.875
		c0.08-0.793,0.737-1.451,1.534-1.53c1.063-0.13,1.954,0.703,1.954,1.745c0,0.262-0.051,0.498-0.157,0.738
		c-0.422,0.871-0.636,1.899-0.636,3.056v1.999h-1.901v-1.97C30.088,38.504,29.862,37.47,29.399,36.312z"/>
	<rect x="27.035" y="45.803" fill="#1E0F00" width="8.007" height="0.816"/>
</g>
</svg>
