<?xml version="1.0" encoding="utf-8"?>
<!-- Generator: Adobe Illustrator 18.1.1, SVG Export Plug-In . SVG Version: 6.00 Build 0)  -->
<svg version="1.1" id="Слой_1" xmlns="http://www.w3.org/2000/svg" xmlns:xlink="http://www.w3.org/1999/xlink" x="0px" y="0px"
	 viewBox="0 0 44.5 43.983" enable-background="new 0 0 44.5 43.983" xml:space="preserve">
<g>
	<g>
		<g>
			<path d="M11.75,15.991c3.861,0,3.867-6,0-6C7.889,9.991,7.883,15.991,11.75,15.991L11.75,15.991z"/>
		</g>
	</g>
	<g>
		<g>
			<path d="M21.75,15.991c3.861,0,3.867-6,0-6C17.889,9.991,17.883,15.991,21.75,15.991L21.75,15.991z"/>
		</g>
	</g>
	<g>
		<g>
			<path d="M16.417,25.325c3.861,0,3.867-6,0-6C12.556,19.325,12.55,25.325,16.417,25.325L16.417,25.325z"/>
		</g>
	</g>
	<g>
		<g>
			<path d="M4.75,25.325c3.861,0,3.867-6,0-6C0.889,19.325,0.883,25.325,4.75,25.325L4.75,25.325z"/>
		</g>
	</g>
	<g>
		<g>
			<path d="M27.75,25.325c3.861,0,3.867-6,0-6C23.889,19.325,23.883,25.325,27.75,25.325L27.75,25.325z"/>
		</g>
	</g>
	<g>
		<g>
			<path d="M32.75,15.991c3.861,0,3.867-6,0-6C28.889,9.991,28.883,15.991,32.75,15.991L32.75,15.991z"/>
		</g>
	</g>
	<g>
		<g>
			<path d="M11.75,33.991c3.861,0,3.867-6,0-6C7.889,27.991,7.883,33.991,11.75,33.991L11.75,33.991z"/>
		</g>
	</g>
	<g>
		<g>
			<path d="M21.75,33.991c3.861,0,3.867-6,0-6C17.889,27.991,17.883,33.991,21.75,33.991L21.75,33.991z"/>
		</g>
	</g>
	<g>
		<g>
			<path d="M32.75,33.991c3.861,0,3.867-6,0-6C28.889,27.991,28.883,33.991,32.75,33.991L32.75,33.991z"/>
		</g>
	</g>
	<g>
		<g>
			<path d="M39.75,25.325c3.861,0,3.867-6,0-6C35.889,19.325,35.883,25.325,39.75,25.325L39.75,25.325z"/>
		</g>
	</g>
</g>
</svg>
