<?xml version="1.0" encoding="utf-8"?>
<!-- Generator: Adobe Illustrator 18.1.1, SVG Export Plug-In . SVG Version: 6.00 Build 0)  -->
<svg version="1.1" id="Слой_1" xmlns="http://www.w3.org/2000/svg" xmlns:xlink="http://www.w3.org/1999/xlink" x="0px" y="0px"
	 viewBox="0 0 39.515 43.983" enable-background="new 0 0 39.515 43.983" xml:space="preserve">
<g>
	<path fill="none" d="M29.156,20.909c-2.548-5.63-5.675-10.779-8.659-15.492l-0.383-0.624c-0.241-0.383-0.383-0.432-0.383-0.432
		c-0.094,0.049-0.285,0.289-0.383,0.432c0,0.049-0.049,0.049-0.049,0.098l-0.624,1.011c-1.252,1.924-2.503,3.942-3.657,5.915
		c-1.831,3.127-4.138,7.26-5.822,11.688c-0.579,1.394-1.011,2.695-1.06,4.04c-0.143,3.657,1.203,6.784,3.946,9.189
		c2.116,1.875,4.859,2.886,7.648,2.886c4.089,0,7.795-2.067,9.911-5.626c1.443-2.361,1.973-4.811,1.488-7.314
		C30.791,24.659,29.976,22.735,29.156,20.909z M19.731,35.915c-4.379,0-7.888-3.559-7.888-7.888c0-0.481,0.383-0.864,0.864-0.864
		c0.481,0,0.864,0.383,0.864,0.864c0.049,3.367,2.793,6.111,6.16,6.111c0.481,0,0.864,0.432,0.864,0.913
		C20.595,35.532,20.212,35.915,19.731,35.915z"/>
	<path fill="#1E0F00" d="M19.731,34.138c-3.367,0-6.111-2.744-6.16-6.111c0-0.481-0.383-0.864-0.864-0.864
		c-0.481,0-0.864,0.383-0.864,0.864c0,4.329,3.51,7.888,7.888,7.888c0.481,0,0.864-0.383,0.864-0.864
		C20.595,34.57,20.212,34.138,19.731,34.138z"/>
	<path fill="#1E0F00" d="M32.96,26.441c-0.383-2.263-1.252-4.329-2.116-6.205c-2.597-5.724-5.724-10.922-8.801-15.732L21.66,3.832
		c-0.53-0.82-1.154-1.252-1.875-1.252c-1.06,0-1.733,0.962-1.924,1.252c0,0,0,0,0,0.049l-0.673,1.06
		c-1.203,1.924-2.454,3.946-3.657,5.964c-1.875,3.176-4.231,7.407-5.964,11.928c-0.579,1.492-1.105,2.984-1.154,4.619
		c-0.192,4.231,1.345,7.795,4.521,10.583c2.454,2.165,5.581,3.367,8.802,3.367c4.713,0,8.997-2.405,11.447-6.494
		C32.818,32.214,33.441,29.327,32.96,26.441z M29.642,33.995c-2.116,3.559-5.822,5.626-9.911,5.626
		c-2.788,0-5.532-1.011-7.648-2.886c-2.744-2.405-4.089-5.532-3.946-9.189c0.049-1.345,0.481-2.646,1.06-4.04
		c1.684-4.427,3.991-8.561,5.822-11.688c1.154-1.973,2.405-3.991,3.657-5.915l0.624-1.011c0-0.049,0.049-0.049,0.049-0.098
		c0.098-0.143,0.289-0.383,0.383-0.432c0,0,0.143,0.049,0.383,0.432l0.383,0.624c2.984,4.713,6.111,9.862,8.659,15.492
		c0.82,1.826,1.635,3.75,1.973,5.773C31.615,29.185,31.085,31.635,29.642,33.995z"/>
</g>
</svg>
