<?xml version="1.0" encoding="utf-8"?>
<!-- Generator: Adobe Illustrator 18.1.1, SVG Export Plug-In . SVG Version: 6.00 Build 0)  -->
<svg version="1.1" id="Слой_1" xmlns="http://www.w3.org/2000/svg" xmlns:xlink="http://www.w3.org/1999/xlink" x="0px" y="0px"
	 viewBox="0 0 32.25 30" enable-background="new 0 0 32.25 30" xml:space="preserve">
<g>
	<path fill="none" d="M26.788,5.474C25.443,4.097,23.65,3.36,21.729,3.36c-1.889,0-3.715,0.768-5.059,2.113
		c-0.288,0.32-0.8,0.32-1.121,0c-1.345-1.377-3.138-2.113-5.059-2.113C8.6,3.36,6.775,4.129,5.43,5.474
		c-1.377,1.345-2.113,3.138-2.113,5.059s0.737,3.714,2.113,5.091L16.125,26.32L26.82,15.624c1.377-1.377,2.113-3.17,2.113-5.091
		C28.934,8.644,28.197,6.819,26.788,5.474z M7.703,14.472c-0.16,0.16-0.352,0.224-0.576,0.224c-0.224,0-0.416-0.064-0.576-0.224
		c-1.057-1.057-1.633-2.466-1.633-3.939s0.576-2.882,1.633-3.939c0.288-0.32,0.8-0.32,1.121,0s0.32,0.833,0,1.121
		c-0.737,0.768-1.153,1.729-1.153,2.818s0.416,2.081,1.185,2.818C8.024,13.639,8.024,14.151,7.703,14.472z"/>
	<path fill="#1E0F00" d="M27.973,4.321c-1.665-1.633-3.875-2.562-6.212-2.562c-2.081,0-4.067,0.737-5.636,2.049
		c-1.569-1.313-3.554-2.049-5.636-2.049c-2.338,0-4.547,0.897-6.212,2.562c-1.665,1.665-2.562,3.875-2.562,6.212
		s0.897,4.547,2.562,6.212l11.272,11.272c0.16,0.16,0.352,0.224,0.576,0.224c0.224,0,0.416-0.064,0.576-0.224l11.271-11.272
		c1.665-1.665,2.562-3.875,2.562-6.212S29.638,5.986,27.973,4.321z M26.82,15.624L16.125,26.32L5.43,15.624
		c-1.377-1.377-2.113-3.17-2.113-5.091S4.053,6.819,5.43,5.474C6.775,4.129,8.6,3.36,10.489,3.36c1.921,0,3.714,0.737,5.059,2.113
		c0.32,0.32,0.833,0.32,1.121,0c1.345-1.345,3.17-2.113,5.059-2.113c1.921,0,3.714,0.737,5.059,2.113
		c1.409,1.345,2.145,3.17,2.145,5.059C28.934,12.454,28.197,14.248,26.82,15.624z"/>
	<path fill="#1E0F00" d="M6.519,10.533c0-1.089,0.416-2.049,1.153-2.818c0.32-0.288,0.32-0.801,0-1.121s-0.833-0.32-1.121,0
		C5.494,7.651,4.918,9.06,4.918,10.533s0.576,2.882,1.633,3.939c0.16,0.16,0.352,0.224,0.576,0.224c0.224,0,0.416-0.064,0.576-0.224
		c0.32-0.32,0.32-0.833,0-1.121C6.935,12.614,6.519,11.622,6.519,10.533z"/>
</g>
</svg>
