<?xml version="1.0" encoding="utf-8"?>
<!-- Generator: Adobe Illustrator 18.1.1, SVG Export Plug-In . SVG Version: 6.00 Build 0)  -->
<svg version="1.1" id="Слой_1" xmlns="http://www.w3.org/2000/svg" xmlns:xlink="http://www.w3.org/1999/xlink" x="0px" y="0px"
	 viewBox="0 0 32.25 40" enable-background="new 0 0 32.25 40" xml:space="preserve">
<g>
	<path fill="none" d="M25.674,14.27c0-5.265-4.284-9.549-9.549-9.549c-5.265,0-9.549,4.284-9.549,9.549
		c0,5.266,4.284,9.549,9.549,9.549C21.39,23.82,25.674,19.536,25.674,14.27z M16.8,17.811l-2.865,2.865
		c-0.187,0.186-0.431,0.28-0.675,0.28c-0.245,0-0.489-0.093-0.675-0.28c-0.373-0.373-0.373-0.978,0-1.35l2.865-2.865
		c0.373-0.373,0.977-0.373,1.35,0C17.173,16.833,17.173,17.438,16.8,17.811z M19.665,9.216l-5.729,5.73
		c-0.187,0.186-0.431,0.28-0.675,0.28c-0.245,0-0.489-0.093-0.675-0.28c-0.373-0.373-0.373-0.978,0-1.35l5.729-5.729
		c0.373-0.373,0.977-0.373,1.35,0C20.038,8.239,20.038,8.843,19.665,9.216z"/>
	<path fill="none" d="M4.327,30.895l2.991-0.801c0.083-0.022,0.166-0.032,0.248-0.032c0.421,0,0.807,0.281,0.922,0.708l0.801,2.991
		l4.748-8.224c-1.954-0.361-3.736-1.217-5.209-2.437L4.327,30.895z"/>
	<path fill="none" d="M18.213,25.535l4.748,8.224l0.801-2.991c0.137-0.51,0.663-0.811,1.17-0.675l2.991,0.801l-4.501-7.796
		C21.949,24.319,20.166,25.174,18.213,25.535z"/>
	<path fill="#1E0F00" d="M30.73,31.937l-5.903-10.223c1.716-2.004,2.757-4.604,2.757-7.443c0-6.318-5.141-11.459-11.459-11.459
		S4.666,7.952,4.666,14.27c0,2.839,1.04,5.439,2.757,7.443L1.52,31.937c-0.193,0.334-0.166,0.752,0.069,1.059
		c0.235,0.306,0.631,0.441,1.005,0.341l4.295-1.151l1.151,4.295c0.1,0.373,0.415,0.649,0.798,0.7
		c0.042,0.005,0.084,0.008,0.125,0.008c0.338,0,0.655-0.18,0.827-0.477l6.335-10.972l6.335,10.972
		c0.172,0.298,0.489,0.477,0.827,0.477c0.041,0,0.083-0.003,0.125-0.008c0.383-0.05,0.698-0.327,0.798-0.7l1.151-4.295l4.295,1.151
		c0.373,0.099,0.77-0.035,1.005-0.341C30.895,32.689,30.923,32.271,30.73,31.937z M9.289,33.76l-0.801-2.991
		c-0.115-0.427-0.5-0.708-0.922-0.708c-0.082,0-0.165,0.011-0.248,0.032l-2.991,0.801l4.501-7.796
		c1.473,1.219,3.255,2.075,5.209,2.437L9.289,33.76z M6.576,14.27c0-5.265,4.284-9.549,9.549-9.549c5.265,0,9.549,4.284,9.549,9.549
		c0,5.266-4.284,9.549-9.549,9.549C10.859,23.82,6.576,19.536,6.576,14.27z M24.932,30.094c-0.507-0.136-1.033,0.166-1.17,0.675
		l-0.801,2.991l-4.748-8.224c1.954-0.361,3.736-1.217,5.209-2.437l4.501,7.796L24.932,30.094z"/>
	<path fill="#1E0F00" d="M18.315,7.866l-5.729,5.729c-0.373,0.373-0.373,0.978,0,1.35c0.186,0.186,0.43,0.28,0.675,0.28
		c0.244,0,0.488-0.093,0.675-0.28l5.729-5.73c0.373-0.373,0.373-0.977,0-1.35C19.292,7.493,18.687,7.493,18.315,7.866z"/>
	<path fill="#1E0F00" d="M15.45,16.46l-2.865,2.865c-0.373,0.373-0.373,0.977,0,1.35c0.186,0.186,0.43,0.28,0.675,0.28
		c0.244,0,0.488-0.093,0.675-0.28l2.865-2.865c0.373-0.373,0.373-0.977,0-1.35C16.427,16.087,15.823,16.087,15.45,16.46z"/>
</g>
</svg>
