<?xml version="1.0" encoding="utf-8"?>
<!-- Generator: Adobe Illustrator 18.1.1, SVG Export Plug-In . SVG Version: 6.00 Build 0)  -->
<svg version="1.1" id="Слой_1" xmlns="http://www.w3.org/2000/svg" xmlns:xlink="http://www.w3.org/1999/xlink" x="0px" y="0px"
	 viewBox="0 0 32.333 30" enable-background="new 0 0 32.333 30" xml:space="preserve">
<g>
	<circle fill="none" cx="21.411" cy="11.577" r="1.027"/>
	<circle fill="none" cx="16.651" cy="11.577" r="1.027"/>
	<circle fill="none" cx="11.891" cy="11.577" r="1.027"/>
	<path fill="#1E0F00" d="M24.521,1.907H7.941c-3.003,0-5.638,2.701-5.638,5.78v7.341c0,3.007,2.476,5.363,5.638,5.363h0.151
		c2.386,0,4.479,1.563,4.479,3.345v3.843c0,0.284,0.23,0.513,0.513,0.513c0.283,0,0.513-0.229,0.513-0.513v-3.843
		c0-2.37-2.522-4.372-5.506-4.372H7.941c-2.585,0-4.611-1.905-4.611-4.336V7.687c0-2.532,2.154-4.753,4.611-4.753h16.58
		c2.429,0,4.481,2.176,4.481,4.753v7.341c0,2.506-1.588,4.544-3.539,4.544c-2.362,0-5.514,1.261-7.025,2.811
		c-1.414,1.449-2.613,2.75-2.625,2.763c-0.192,0.208-0.179,0.533,0.03,0.725c0.208,0.192,0.533,0.178,0.726-0.03
		c0.012-0.013,1.202-1.303,2.605-2.742c1.322-1.356,4.203-2.501,6.29-2.501c2.518,0,4.566-2.499,4.566-5.571V7.687
		C30.029,4.554,27.506,1.907,24.521,1.907z"/>
	<path fill="#1E0F00" d="M9.838,11.577c0,1.133,0.921,2.054,2.054,2.054c1.133,0,2.054-0.921,2.054-2.054
		c0-1.133-0.921-2.054-2.054-2.054C10.759,9.524,9.838,10.445,9.838,11.577z M12.918,11.577c0,0.566-0.461,1.027-1.027,1.027
		s-1.027-0.461-1.027-1.027s0.461-1.027,1.027-1.027C12.458,10.551,12.918,11.011,12.918,11.577z"/>
	<path fill="#1E0F00" d="M18.705,11.577c0-1.133-0.921-2.054-2.054-2.054c-1.133,0-2.054,0.921-2.054,2.054
		c0,1.133,0.921,2.054,2.054,2.054C17.784,13.631,18.705,12.71,18.705,11.577z M15.624,11.577c0-0.566,0.46-1.027,1.027-1.027
		c0.566,0,1.027,0.461,1.027,1.027s-0.461,1.027-1.027,1.027C16.084,12.604,15.624,12.144,15.624,11.577z"/>
	<path fill="#1E0F00" d="M23.465,11.577c0-1.133-0.921-2.054-2.054-2.054c-1.133,0-2.054,0.921-2.054,2.054
		c0,1.133,0.921,2.054,2.054,2.054C22.544,13.631,23.465,12.71,23.465,11.577z M20.384,11.577c0-0.566,0.461-1.027,1.027-1.027
		c0.566,0,1.027,0.461,1.027,1.027s-0.461,1.027-1.027,1.027S20.384,12.144,20.384,11.577z"/>
</g>
</svg>
