<?xml version="1.0" encoding="utf-8"?>
<!-- Generator: Adobe Illustrator 18.1.1, SVG Export Plug-In . SVG Version: 6.00 Build 0)  -->
<svg version="1.1" id="Слой_1" xmlns="http://www.w3.org/2000/svg" xmlns:xlink="http://www.w3.org/1999/xlink" x="0px" y="0px"
	 viewBox="0 0 36.703 40" enable-background="new 0 0 36.703 40" xml:space="preserve">
<g>
	<path fill="none" d="M19.266,20c0-3.027,2.463-5.49,5.49-5.49h6.404V8.106c0-0.504-0.411-0.915-0.915-0.915H4.628
		c-0.504,0-0.915,0.411-0.915,0.915v23.788c0,0.504,0.411,0.915,0.915,0.915h25.618c0.504,0,0.915-0.411,0.915-0.915v-6.404h-6.404
		C21.729,25.489,19.266,23.027,19.266,20z M7.373,29.149c0,0.505-0.41,0.915-0.915,0.915s-0.915-0.409-0.915-0.915V9.936
		c0-0.505,0.41-0.915,0.915-0.915h21.043c0.505,0,0.915,0.409,0.915,0.915c0,0.505-0.41,0.915-0.915,0.915H7.373V29.149z"/>
	<path fill="none" d="M21.096,20c0,2.018,1.642,3.66,3.66,3.66h8.234V16.34h-8.234C22.738,16.34,21.096,17.982,21.096,20z
		 M26.586,20c0,1.009-0.821,1.83-1.83,1.83s-1.83-0.821-1.83-1.83c0-1.009,0.821-1.83,1.83-1.83S26.586,18.991,26.586,20z"/>
	<path fill="#1E0F00" d="M33.905,14.511H32.99V8.106c0-1.514-1.231-2.745-2.745-2.745H4.628c-1.514,0-2.745,1.231-2.745,2.745
		v23.788c0,1.514,1.231,2.745,2.745,2.745h25.618c1.514,0,2.745-1.231,2.745-2.745v-6.404h0.915c0.505,0,0.915-0.409,0.915-0.915
		v-9.149C34.82,14.92,34.41,14.511,33.905,14.511z M31.16,31.894c0,0.504-0.411,0.915-0.915,0.915H4.628
		c-0.504,0-0.915-0.411-0.915-0.915V8.106c0-0.504,0.411-0.915,0.915-0.915h25.618c0.504,0,0.915,0.411,0.915,0.915v6.404h-6.404
		c-3.027,0-5.49,2.462-5.49,5.49c0,3.027,2.463,5.489,5.49,5.489h6.404V31.894z M32.99,23.66h-8.234c-2.018,0-3.66-1.642-3.66-3.66
		c0-2.018,1.642-3.66,3.66-3.66h8.234V23.66z"/>
	<circle fill="#1E0F00" cx="24.756" cy="20" r="1.83"/>
	<path fill="#1E0F00" d="M28.416,9.936c0-0.505-0.41-0.915-0.915-0.915H6.458c-0.505,0-0.915,0.409-0.915,0.915v19.213
		c0,0.505,0.41,0.915,0.915,0.915s0.915-0.409,0.915-0.915V10.851h20.128C28.006,10.851,28.416,10.441,28.416,9.936z"/>
</g>
</svg>
