<?xml version="1.0" encoding="utf-8"?>
<!-- Generator: Adobe Illustrator 18.1.1, SVG Export Plug-In . SVG Version: 6.00 Build 0)  -->
<svg version="1.1" id="Слой_1" xmlns="http://www.w3.org/2000/svg" xmlns:xlink="http://www.w3.org/1999/xlink" x="0px" y="0px"
	 viewBox="0 0 23.833 30" enable-background="new 0 0 23.833 30" xml:space="preserve">
<g>
	<path fill="none" d="M9.536,6.789c-3.089,0-5.603,2.513-5.603,5.603s2.514,5.603,5.603,5.603s5.603-2.513,5.603-5.603
		S12.626,6.789,9.536,6.789z"/>
	<path fill="#1E0F00" d="M21.9,23.797l-6.534-6.534c1.105-1.32,1.773-3.019,1.773-4.871c0-4.192-3.411-7.603-7.603-7.603
		c-4.192,0-7.603,3.411-7.603,7.603s3.411,7.603,7.603,7.603c1.619,0,3.119-0.513,4.353-1.379l6.596,6.596L21.9,23.797z
		 M9.536,17.994c-3.089,0-5.603-2.513-5.603-5.603s2.514-5.603,5.603-5.603s5.603,2.513,5.603,5.603S12.626,17.994,9.536,17.994z"/>
</g>
</svg>
