<?xml version="1.0" encoding="utf-8"?>
<!-- Generator: Adobe Illustrator 18.1.1, SVG Export Plug-In . SVG Version: 6.00 Build 0)  -->
<svg version="1.1" id="Слой_1" xmlns="http://www.w3.org/2000/svg" xmlns:xlink="http://www.w3.org/1999/xlink" x="0px" y="0px"
	 viewBox="0 0 36.902 40" enable-background="new 0 0 36.902 40" xml:space="preserve">
<g>
	<path fill="none" d="M19.354,33.837c5.442-3.124,9.42-8.058,11.344-13.837H19.354V33.837z"/>
	<path fill="none" d="M4.909,6.767v5.208c0,2.134,0.265,4.218,0.768,6.219h11.871V6.765c-1.918,1.559-4.105,2.401-6.32,2.401
		C9.014,9.166,6.827,8.327,4.909,6.767z"/>
	<path fill="none" d="M17.548,33.837V20H6.205C8.128,25.78,12.107,30.714,17.548,33.837z"/>
	<path fill="none" d="M19.354,6.765v11.43h11.871c0.503-2.001,0.768-4.086,0.768-6.219V6.767c-1.918,1.559-4.106,2.399-6.32,2.399
		C23.459,9.166,21.272,8.324,19.354,6.765z"/>
	<path fill="#1E0F00" d="M33.218,3.808c-0.351-0.133-0.747-0.036-0.996,0.244c-1.924,2.164-4.188,3.308-6.548,3.308
		c-2.36,0-4.624-1.144-6.548-3.308c-0.005-0.006-0.012-0.009-0.017-0.015c-0.036-0.039-0.076-0.073-0.118-0.106
		c-0.003-0.002-0.005-0.005-0.009-0.007c-0.149-0.109-0.331-0.175-0.531-0.175c-0.199,0-0.382,0.066-0.531,0.176
		c-0.003,0.002-0.005,0.005-0.009,0.007c-0.043,0.032-0.082,0.066-0.118,0.105c-0.005,0.005-0.012,0.009-0.017,0.015
		c-1.924,2.164-4.188,3.308-6.548,3.308c-2.36,0-4.624-1.144-6.548-3.308C4.432,3.773,4.037,3.674,3.685,3.808
		c-0.35,0.133-0.582,0.469-0.582,0.844v7.323c0,10.306,5.726,19.571,14.944,24.181c0.127,0.064,0.265,0.095,0.404,0.095
		s0.277-0.032,0.404-0.095c9.218-4.609,14.944-13.875,14.944-24.181V4.652C33.799,4.277,33.567,3.941,33.218,3.808z M17.548,33.837
		C12.107,30.714,8.128,25.78,6.205,20h11.344V33.837z M17.548,18.194H5.677c-0.503-2.001-0.768-4.086-0.768-6.219V6.767
		c1.918,1.559,4.106,2.399,6.32,2.399c2.215,0,4.401-0.842,6.32-2.401V18.194z M19.354,33.837V20h11.344
		C28.774,25.78,24.796,30.714,19.354,33.837z M31.994,11.975c0,2.134-0.266,4.218-0.768,6.219H19.354V6.765
		c1.918,1.559,4.105,2.401,6.32,2.401c2.214,0,4.402-0.84,6.32-2.399V11.975z"/>
</g>
</svg>
