<?xml version="1.0" encoding="utf-8"?>
<!-- Generator: Adobe Illustrator 18.1.1, SVG Export Plug-In . SVG Version: 6.00 Build 0)  -->
<svg version="1.1" id="Слой_1" xmlns="http://www.w3.org/2000/svg" xmlns:xlink="http://www.w3.org/1999/xlink" x="0px" y="0px"
	 viewBox="0 0 45.833 46.667" enable-background="new 0 0 45.833 46.667" xml:space="preserve">
<g>
	<path fill="none" d="M24.169,31.267c0-0.404-0.031-0.494-0.222-0.718c-0.101-0.123-0.164-0.273-0.183-0.431l-0.848-6.368
		l-0.848,6.368c-0.019,0.158-0.082,0.307-0.183,0.431c-0.191,0.223-0.222,0.314-0.222,0.718c0,0.702,0.551,1.253,1.253,1.253
		S24.169,31.968,24.169,31.267z"/>
	<path fill="none" d="M25.383,29.649l0.013,0.117c0.285,0.456,0.444,0.982,0.444,1.501c0,1.604-1.318,2.923-2.923,2.923
		s-2.923-1.318-2.923-2.923c0-0.519,0.159-1.045,0.444-1.501l0.013-0.117c-1.092,0.13-1.923,0.536-2.544,1.227
		c-0.765,0.85-1.253,2.201-1.253,4.149c-0.002,0.039-0.006,0.079-0.013,0.117c1.87,0.995,4.008,1.566,6.276,1.566
		c2.264,0,4.395-0.574,6.263-1.566c-0.003-0.039-0.003-0.078,0-0.117c0-1.948-0.488-3.3-1.253-4.149
		C27.306,30.185,26.475,29.779,25.383,29.649z"/>
	<path fill="none" d="M34.83,17.266l-1.096,0.548c-0.414,0.209-0.92,0.042-1.129-0.372s-0.042-0.92,0.372-1.129l1.005-0.496
		c-2.258-3.319-5.974-5.558-10.23-5.82l0,1.234c0,0,0,0.008,0,0.016c-0.007,0.461-0.386,0.83-0.847,0.823
		c-0.461-0.007-0.83-0.386-0.823-0.847V9.998c-4.255,0.261-7.971,2.501-10.23,5.82l1.005,0.496c0.414,0.209,0.581,0.714,0.372,1.129
		s-0.714,0.581-1.129,0.372l-1.096-0.548c-0.929,1.821-1.461,3.881-1.461,6.067c0,4.434,2.161,8.36,5.48,10.791
		c0.134-1.809,0.673-3.293,1.631-4.358c0.999-1.11,2.42-1.689,4.032-1.801l1.409-10.595c0.047-0.366,0.328-0.657,0.692-0.718
		c0.005-0.001,0.011-0.002,0.016-0.002c0.457-0.06,0.877,0.263,0.936,0.72l1.409,10.595c1.612,0.112,3.033,0.691,4.032,1.801
		c0.958,1.065,1.497,2.549,1.631,4.358c3.319-2.431,5.48-6.357,5.48-10.791C36.291,21.147,35.758,19.087,34.83,17.266z"/>
	<path fill="none" d="M22.917,6.632c-9.234,0-16.702,7.468-16.702,16.702s7.468,16.702,16.702,16.702
		c9.234,0,16.702-7.468,16.702-16.702S32.151,6.632,22.917,6.632z M22.917,38.352c-8.292,0-15.018-6.727-15.018-15.018
		c0-8.292,6.727-15.018,15.018-15.018c8.292,0,15.018,6.727,15.018,15.018C37.935,31.625,31.208,38.352,22.917,38.352z"/>
	<path fill="#1E0F00" d="M22.917,8.315c-8.292,0-15.018,6.727-15.018,15.018c0,8.292,6.727,15.018,15.018,15.018
		c8.292,0,15.018-6.727,15.018-15.018C37.935,15.041,31.208,8.315,22.917,8.315z M29.18,35.142
		c-1.868,0.991-3.999,1.566-6.263,1.566c-2.268,0-4.406-0.571-6.276-1.566c0.007-0.039,0.011-0.078,0.013-0.117
		c0-1.948,0.488-3.3,1.253-4.149c0.621-0.69,1.452-1.096,2.544-1.227l-0.013,0.117c-0.285,0.456-0.444,0.982-0.444,1.501
		c0,1.604,1.318,2.923,2.923,2.923s2.923-1.318,2.923-2.923c0-0.519-0.159-1.045-0.444-1.501l-0.013-0.117
		c1.092,0.13,1.923,0.536,2.544,1.227c0.765,0.85,1.253,2.201,1.253,4.149C29.177,35.064,29.177,35.103,29.18,35.142z
		 M21.664,31.267c0-0.404,0.031-0.494,0.222-0.718c0.101-0.123,0.164-0.273,0.183-0.431l0.848-6.368l0.848,6.368
		c0.019,0.158,0.082,0.307,0.183,0.431c0.191,0.223,0.222,0.314,0.222,0.718c0,0.702-0.551,1.253-1.253,1.253
		S21.664,31.968,21.664,31.267z M30.811,34.124c-0.134-1.809-0.673-3.293-1.631-4.358c-0.999-1.11-2.42-1.689-4.032-1.801
		L23.739,17.37c-0.06-0.457-0.479-0.78-0.936-0.72c-0.005,0.001-0.011,0.001-0.016,0.002c-0.364,0.06-0.645,0.352-0.692,0.718
		l-1.409,10.595c-1.612,0.112-3.033,0.691-4.032,1.801c-0.958,1.065-1.497,2.549-1.631,4.358c-3.319-2.431-5.48-6.357-5.48-10.791
		c0-2.187,0.533-4.246,1.461-6.067l1.096,0.548c0.414,0.209,0.92,0.042,1.129-0.372s0.043-0.92-0.372-1.129l-1.005-0.496
		c2.258-3.319,5.974-5.558,10.23-5.82v1.227c-0.007,0.461,0.362,0.84,0.823,0.847c0.461,0.007,0.84-0.362,0.847-0.823
		c0-0.008,0-0.016,0-0.016l0-1.234c4.255,0.261,7.972,2.501,10.23,5.82l-1.005,0.496c-0.414,0.209-0.581,0.714-0.372,1.129
		s0.714,0.581,1.129,0.372l1.096-0.548c0.929,1.821,1.461,3.881,1.461,6.067C36.291,27.767,34.13,31.693,30.811,34.124z"/>
	<path fill="#1E0F00" d="M22.917,4.961c-10.137,0-18.372,8.235-18.372,18.372s8.235,18.372,18.372,18.372
		s18.372-8.235,18.372-18.372S33.053,4.961,22.917,4.961z M22.917,40.035c-9.234,0-16.702-7.468-16.702-16.702
		S13.683,6.632,22.917,6.632c9.234,0,16.702,7.468,16.702,16.702S32.151,40.035,22.917,40.035z"/>
</g>
</svg>
