<?xml version="1.0" encoding="utf-8"?>
<!-- Generator: Adobe Illustrator 18.1.1, SVG Export Plug-In . SVG Version: 6.00 Build 0)  -->
<svg version="1.1" id="Слой_1" xmlns="http://www.w3.org/2000/svg" xmlns:xlink="http://www.w3.org/1999/xlink" x="0px" y="0px"
	 viewBox="0 0 95.891 55.101" enable-background="new 0 0 95.891 55.101" xml:space="preserve">
<title>Artboard 49</title>
<g>
	<circle fill="none" cx="65.838" cy="44.951" r="1.978"/>
	<circle fill="none" cx="19.082" cy="44.951" r="1.978"/>
	<circle fill="none" cx="77.099" cy="44.951" r="1.978"/>
	<circle fill="none" cx="30.342" cy="44.951" r="1.978"/>
	<path fill="none" d="M79.077,8.172H17.104v21.625h61.973V8.172z M24.576,25.348c0,0.728-0.59,1.319-1.319,1.319
		s-1.319-0.59-1.319-1.319V12.954c0-0.728,0.59-1.319,1.319-1.319s1.319,0.59,1.319,1.319V25.348z M31.722,25.348
		c-0.001,0.727-0.59,1.316-1.317,1.317c-0.728,0.001-1.319-0.589-1.32-1.317V12.954c0-0.728,0.59-1.319,1.319-1.319
		c0.728,0,1.319,0.59,1.319,1.319V25.348z M38.86,25.348c0,0.728-0.59,1.319-1.319,1.319c-0.728,0-1.319-0.59-1.319-1.319V12.954
		c0-0.728,0.59-1.319,1.319-1.319c0.728,0,1.319,0.59,1.319,1.319V25.348z M46.007,25.348c0,0.728-0.59,1.319-1.319,1.319
		s-1.319-0.59-1.319-1.319V12.954c0-0.728,0.59-1.319,1.319-1.319s1.319,0.59,1.319,1.319V25.348z M53.145,25.348
		c0,0.728-0.59,1.319-1.319,1.319s-1.319-0.59-1.319-1.319V12.954c0-0.728,0.59-1.319,1.319-1.319s1.319,0.59,1.319,1.319V25.348z
		 M60.292,25.348c0,0.728-0.59,1.319-1.319,1.319c-0.728,0-1.319-0.59-1.319-1.319V12.954c0-0.728,0.59-1.319,1.319-1.319
		c0.728,0,1.319,0.59,1.319,1.319V25.348z M67.438,25.348c0,0.728-0.59,1.319-1.319,1.319c-0.728,0-1.319-0.59-1.319-1.319V12.954
		c0-0.728,0.59-1.319,1.319-1.319c0.728,0,1.319,0.59,1.319,1.319V25.348z M74.576,25.348c0,0.728-0.59,1.319-1.319,1.319
		c-0.728,0-1.319-0.59-1.319-1.319V12.954c0-0.728,0.59-1.319,1.319-1.319c0.728,0,1.319,0.59,1.319,1.319V25.348z"/>
	<rect x="40.082" y="38.183" fill="none" width="15.489" height="5.45"/>
	<path fill="#1E0F00" d="M15.785,32.434h64.61c0.728,0,1.319-0.59,1.319-1.319V6.853c0-0.728-0.59-1.319-1.319-1.319h-64.61
		c-0.728,0-1.319,0.59-1.319,1.319v24.262C14.467,31.843,15.057,32.434,15.785,32.434z M17.104,8.172h61.973v21.625H17.104V8.172z"
		/>
	<path fill="#1E0F00" d="M19.082,40.336c-2.549,0-4.615,2.066-4.615,4.615s2.066,4.615,4.615,4.615s4.615-2.066,4.615-4.615
		C23.692,42.405,21.629,40.341,19.082,40.336z M19.082,46.929c-1.092,0-1.978-0.885-1.978-1.978s0.885-1.978,1.978-1.978
		s1.978,0.885,1.978,1.978S20.174,46.929,19.082,46.929z"/>
	<path fill="#1E0F00" d="M30.342,40.336c-2.549,0-4.615,2.066-4.615,4.615s2.066,4.615,4.615,4.615c2.549,0,4.615-2.066,4.615-4.615
		C34.952,42.405,32.889,40.341,30.342,40.336z M30.342,46.929c-1.092,0-1.978-0.885-1.978-1.978s0.885-1.978,1.978-1.978
		s1.978,0.885,1.978,1.978S31.435,46.929,30.342,46.929z"/>
	<path fill="#1E0F00" d="M65.838,40.336c-2.549,0-4.615,2.066-4.615,4.615s2.066,4.615,4.615,4.615c2.549,0,4.615-2.066,4.615-4.615
		C70.449,42.405,68.385,40.341,65.838,40.336z M65.838,46.929c-1.092,0-1.978-0.885-1.978-1.978s0.886-1.978,1.978-1.978
		s1.978,0.885,1.978,1.978S66.931,46.929,65.838,46.929z"/>
	<path fill="#1E0F00" d="M77.099,40.336c-2.549,0-4.615,2.066-4.615,4.615s2.066,4.615,4.615,4.615s4.615-2.066,4.615-4.615
		C81.709,42.405,79.646,40.341,77.099,40.336z M77.099,46.929c-1.092,0-1.978-0.885-1.978-1.978s0.885-1.978,1.978-1.978
		s1.978,0.885,1.978,1.978S78.191,46.929,77.099,46.929z"/>
	<path fill="#1E0F00" d="M23.257,11.635c-0.728,0-1.319,0.59-1.319,1.319v12.395c0,0.728,0.59,1.319,1.319,1.319
		s1.319-0.59,1.319-1.319V12.954C24.576,12.226,23.985,11.635,23.257,11.635z"/>
	<path fill="#1E0F00" d="M30.404,11.635c-0.728,0-1.319,0.59-1.319,1.319v12.395c0.001,0.728,0.592,1.318,1.32,1.317
		c0.727-0.001,1.316-0.59,1.317-1.317V12.954C31.722,12.226,31.132,11.635,30.404,11.635z"/>
	<path fill="#1E0F00" d="M37.542,11.635c-0.728,0-1.319,0.59-1.319,1.319v12.395c0,0.728,0.59,1.319,1.319,1.319
		c0.728,0,1.319-0.59,1.319-1.319V12.954C38.86,12.226,38.27,11.635,37.542,11.635z"/>
	<path fill="#1E0F00" d="M44.688,11.635c-0.728,0-1.319,0.59-1.319,1.319v12.395c0,0.728,0.59,1.319,1.319,1.319
		s1.319-0.59,1.319-1.319V12.954C46.007,12.226,45.417,11.635,44.688,11.635z"/>
	<path fill="#1E0F00" d="M51.826,11.635c-0.728,0-1.319,0.59-1.319,1.319v12.395c0,0.728,0.59,1.319,1.319,1.319
		s1.319-0.59,1.319-1.319V12.954C53.145,12.226,52.555,11.635,51.826,11.635z"/>
	<path fill="#1E0F00" d="M58.973,11.635c-0.728,0-1.319,0.59-1.319,1.319v12.395c0,0.728,0.59,1.319,1.319,1.319
		c0.728,0,1.319-0.59,1.319-1.319V12.954C60.292,12.226,59.701,11.635,58.973,11.635z"/>
	<path fill="#1E0F00" d="M66.12,11.635c-0.728,0-1.319,0.59-1.319,1.319v12.395c0,0.728,0.59,1.319,1.319,1.319
		c0.728,0,1.319-0.59,1.319-1.319V12.954C67.438,12.226,66.848,11.635,66.12,11.635z"/>
	<path fill="#1E0F00" d="M73.258,11.635c-0.728,0-1.319,0.59-1.319,1.319v12.395c0,0.728,0.59,1.319,1.319,1.319
		c0.728,0,1.319-0.59,1.319-1.319V12.954C74.576,12.226,73.986,11.635,73.258,11.635z"/>
	<path fill="#1E0F00" d="M84.94,32.1c-0.728,0-1.319,0.59-1.319,1.319v2.127H12.269v-2.127c0-0.728-0.59-1.319-1.319-1.319
		s-1.319,0.59-1.319,1.319v6.883c0,0.728,0.59,1.319,1.319,1.319s1.319-0.59,1.319-1.319v-2.127h25.176v6.769
		c0,0.728,0.59,1.319,1.319,1.319H56.89c0.728,0,1.319-0.59,1.319-1.319v-6.769h25.413v2.127c0,0.728,0.59,1.319,1.319,1.319
		s1.319-0.59,1.319-1.319v-6.883C86.259,32.69,85.668,32.1,84.94,32.1z M55.571,43.633H40.082v-5.45h15.489V43.633z"/>
</g>
</svg>
