<?xml version="1.0" encoding="utf-8"?>
<!-- Generator: Adobe Illustrator 18.1.1, SVG Export Plug-In . SVG Version: 6.00 Build 0)  -->
<svg version="1.1" id="Слой_1" xmlns="http://www.w3.org/2000/svg" xmlns:xlink="http://www.w3.org/1999/xlink" x="0px" y="0px"
	 viewBox="0 0 32.25 30" enable-background="new 0 0 32.25 30" xml:space="preserve">
<g>
	<path fill="none" d="M16.705,15.827h-1.574v2.028h1.582c0.535,0,0.917-0.093,1.136-0.279c0.219-0.196,0.324-0.451,0.324-0.767
		c0-0.293-0.105-0.528-0.324-0.714C17.638,15.916,17.257,15.827,16.705,15.827z"/>
	<path fill="none" d="M17.492,13.672c0.187-0.166,0.284-0.405,0.284-0.721c0-0.293-0.097-0.516-0.284-0.678
		c-0.187-0.167-0.519-0.252-0.99-0.252h-1.371v1.907h1.347C16.965,13.928,17.305,13.839,17.492,13.672z"/>
	<path fill="none" d="M21.874,6.886H10.368c-1.322,0-2.401,1.07-2.401,2.389v11.454c0,1.314,1.079,2.389,2.401,2.389h11.506
		c1.331,0,2.402-1.076,2.402-2.389V9.274C24.276,7.956,23.204,6.886,21.874,6.886z M20.924,18.562
		c-0.235,0.415-0.568,0.739-0.998,0.978c-0.252,0.149-0.649,0.264-1.169,0.329c-0.706,0.089-1.168,0.138-1.395,0.138h-5.371V10.001
		h5.818c0.974,0,1.721,0.235,2.24,0.707c0.519,0.479,0.779,1.08,0.779,1.777c0,0.591-0.187,1.104-0.56,1.525
		c-0.244,0.284-0.609,0.503-1.087,0.674c0.73,0.17,1.258,0.47,1.598,0.884c0.34,0.426,0.511,0.954,0.511,1.59
		C21.289,17.677,21.168,18.139,20.924,18.562z"/>
	<path fill="#1E0F00" d="M19.18,14.683c0.479-0.171,0.844-0.39,1.087-0.674c0.373-0.421,0.56-0.934,0.56-1.525
		c0-0.697-0.26-1.298-0.779-1.777c-0.519-0.471-1.266-0.707-2.24-0.707h-5.818v10.006h5.371c0.228,0,0.69-0.049,1.395-0.138
		c0.52-0.065,0.917-0.18,1.169-0.329c0.43-0.239,0.762-0.563,0.998-0.978c0.244-0.422,0.365-0.885,0.365-1.404
		c0-0.637-0.171-1.164-0.511-1.59C20.437,15.153,19.91,14.853,19.18,14.683z M15.131,12.021h1.371c0.471,0,0.803,0.085,0.99,0.252
		c0.187,0.162,0.284,0.385,0.284,0.678c0,0.315-0.097,0.555-0.284,0.721c-0.187,0.167-0.528,0.256-1.014,0.256h-1.347V12.021z
		 M17.849,17.576c-0.219,0.186-0.601,0.279-1.136,0.279h-1.582v-2.028h1.574c0.552,0,0.933,0.089,1.144,0.268
		c0.219,0.187,0.324,0.422,0.324,0.714C18.173,17.125,18.069,17.38,17.849,17.576z"/>
	<path fill="#1E0F00" d="M16.129,2.488C9.183,2.488,3.552,8.094,3.552,15c0,6.912,5.631,12.512,12.577,12.512
		c6.937,0,12.569-5.6,12.569-12.512C28.698,8.094,23.067,2.488,16.129,2.488z M24.276,20.728c0,1.314-1.071,2.389-2.402,2.389
		H10.368c-1.322,0-2.401-1.076-2.401-2.389V9.274c0-1.318,1.079-2.389,2.401-2.389h11.506c1.331,0,2.402,1.07,2.402,2.389V20.728z"
		/>
</g>
</svg>
