<?xml version="1.0" encoding="utf-8"?>
<!-- Generator: Adobe Illustrator 18.1.1, SVG Export Plug-In . SVG Version: 6.00 Build 0)  -->
<svg version="1.1" id="Слой_1" xmlns="http://www.w3.org/2000/svg" xmlns:xlink="http://www.w3.org/1999/xlink" x="0px" y="0px"
	 viewBox="0 0 39.515 43.983" enable-background="new 0 0 39.515 43.983" xml:space="preserve">
<g>
	<path fill="#1E0F00" d="M36.744,32.302c-0.65-0.494-1.625-0.493-2.274,0.167c-4.219,4.455-8.12,2.81-13.971-0.316
		c-5.201-2.797-11.703-6.087-17.869,0.348c-0.487,0.66-0.486,1.484,0.165,2.143c0.65,0.494,1.625,0.493,2.274-0.167
		c4.219-4.455,8.12-2.81,13.971,0.316c5.201,2.632,11.702,6.087,17.869-0.347C37.395,33.785,37.394,32.796,36.744,32.302z"/>
	<path fill="#1E0F00" d="M5.057,22.938c4.219-4.455,8.12-2.81,13.971,0.316c5.201,2.632,11.702,6.087,17.869-0.347
		c0.487-0.66,0.486-1.649-0.165-2.143c-0.65-0.494-1.625-0.493-2.274,0.167c-4.219,4.455-8.12,2.81-13.971-0.316
		c-5.201-2.632-11.702-6.087-17.869,0.347c-0.487,0.66-0.486,1.484,0.165,2.143C3.433,23.599,4.408,23.598,5.057,22.938z"/>
	<path fill="#1E0F00" d="M5.046,11.565c4.219-4.455,8.12-2.81,13.971,0.316c5.201,2.632,11.702,6.087,17.869-0.348
		c0.487-0.66,0.485-1.649-0.165-2.143c-0.65-0.494-1.625-0.493-2.274,0.167c-4.219,4.455-8.12,2.81-13.971-0.316
		C15.275,6.445,8.774,3.155,2.607,9.589c-0.487,0.66-0.486,1.319,0.165,2.143C3.422,12.226,4.397,12.225,5.046,11.565z"/>
</g>
</svg>
