<?xml version="1.0" encoding="utf-8"?>
<!-- Generator: Adobe Illustrator 18.1.1, SVG Export Plug-In . SVG Version: 6.00 Build 0)  -->
<svg version="1.1" id="Слой_1" xmlns="http://www.w3.org/2000/svg" xmlns:xlink="http://www.w3.org/1999/xlink" x="0px" y="0px"
	 viewBox="0 0 45.833 46.667" enable-background="new 0 0 45.833 46.667" xml:space="preserve">
<g>
	<path fill="#1E0F00" d="M38.479,39.333h-31c-0.553,0-1,0.447-1,1s0.447,1,1,1h31c0.553,0,1-0.447,1-1S39.032,39.333,38.479,39.333z
		"/>
	<path fill="#1E0F00" d="M7.354,35.188h31c0.553,0,1-0.447,1-1s-0.447-1-1-1h-31c-0.553,0-1,0.447-1,1S6.801,35.188,7.354,35.188z"
		/>
	<path fill="#1E0F00" d="M7.479,28.666h9.3c0.802,0.397,3.508,1.625,6.367,1.625c2.556,0,5.38-1.243,6.188-1.625h9.146
		c0.553,0,1-0.447,1-1c0-0.552-0.447-1-1-1h-9.375c-0.156,0-0.312,0.037-0.451,0.107c-0.03,0.015-3.035,1.518-5.507,1.518
		c-2.823,0-5.623-1.49-5.65-1.505c-0.146-0.079-0.311-0.12-0.476-0.12H7.479c-0.553,0-1,0.448-1,1
		C6.479,28.219,6.926,28.666,7.479,28.666z"/>
	<path fill="#1E0F00" d="M22.282,24.207c0.195,0.195,0.451,0.293,0.707,0.293c0.071,0,0.139-0.026,0.208-0.041
		c0.07,0.015,0.138,0.041,0.208,0.041c0.256,0,0.512-0.098,0.707-0.293l6.583-6.583c0.391-0.391,0.391-1.023,0-1.414
		c-0.391-0.391-1.023-0.391-1.414,0l-4.876,4.876V6.333c0-0.552-0.447-1-1-1s-1,0.448-1,1v15.169l-5.293-5.293
		c-0.391-0.391-1.023-0.391-1.414,0c-0.391,0.391-0.391,1.023,0,1.414L22.282,24.207z"/>
</g>
</svg>
