<?xml version="1.0" encoding="utf-8"?>
<!-- Generator: Adobe Illustrator 18.1.1, SVG Export Plug-In . SVG Version: 6.00 Build 0)  -->
<svg version="1.1" id="Слой_1" xmlns="http://www.w3.org/2000/svg" xmlns:xlink="http://www.w3.org/1999/xlink" x="0px" y="0px"
	 viewBox="0 0 39.515 43.983" enable-background="new 0 0 39.515 43.983" xml:space="preserve">
<g>
	<path fill="#1E0F00" d="M32.79,16.015h-8.28v-3.816c4.752-0.864,9-3.024,12.313-6.264c0.216-0.216,0.288-0.504,0.144-0.792
		c-0.072-0.288-0.36-0.432-0.648-0.432H3.197c-0.288,0-0.576,0.144-0.648,0.432C2.405,5.431,2.477,5.719,2.693,5.935
		c3.312,3.24,7.56,5.4,12.313,6.264v3.816h-8.28c-0.36,0-0.648,0.288-0.72,0.576L2.477,38.408c0,0.576,0.288,0.864,0.72,0.864
		h33.121c0.504-0.072,0.72-0.36,0.72-0.864L33.51,16.591C33.438,16.231,33.15,16.015,32.79,16.015z M5.069,6.151h29.377
		c-3.024,2.448-6.696,4.104-10.8,4.752c-2.448,0.432-5.328,0.432-7.776,0C11.765,10.255,8.093,8.599,5.069,6.151z M23.07,12.415v3.6
		h-6.552v-3.6C18.606,12.703,20.766,12.703,23.07,12.415z M4.061,37.832l3.312-20.377h24.841l3.24,20.377H4.061z"/>
	<path fill="#1E0F00" d="M26.094,21.343C26.094,21.343,26.094,21.271,26.094,21.343C26.094,21.271,26.094,21.271,26.094,21.343
		c-1.656-1.656-3.888-2.664-6.336-2.664l0,0l0,0l0,0c-2.448,0-4.68,1.008-6.336,2.592l0,0l0,0c-1.584,1.656-2.592,3.888-2.592,6.336
		l0,0l0,0l0,0c0,2.448,1.008,4.68,2.592,6.336l0,0l0,0c1.656,1.584,3.888,2.592,6.336,2.592l0,0l0,0c2.448,0,4.68-1.008,6.336-2.592
		l0,0l0,0c1.584-1.656,2.592-3.888,2.592-6.336C28.758,25.159,27.75,22.927,26.094,21.343z M26.598,28.328h0.648
		c-0.144,1.512-0.72,2.952-1.656,4.104l-0.504-0.504c-0.288-0.288-0.72-0.288-1.008,0c-0.288,0.288-0.288,0.72,0,1.008l0.504,0.504
		c-1.152,0.936-2.52,1.512-4.104,1.656v-0.648c0-0.432-0.288-0.72-0.72-0.72c-0.432,0-0.72,0.288-0.72,0.72v0.648
		c-1.512-0.144-2.952-0.72-4.104-1.656l0.504-0.504c0.288-0.288,0.288-0.72,0-1.008c-0.288-0.288-0.72-0.288-1.008,0l-0.504,0.504
		c-0.936-1.152-1.512-2.52-1.656-4.104h0.648c0.432,0,0.72-0.288,0.72-0.72c0-0.432-0.288-0.72-0.72-0.72h-0.648
		c0.144-1.512,0.72-2.952,1.656-4.104l0.504,0.504c0.144,0.144,0.36,0.216,0.504,0.216c0.216,0,0.36-0.072,0.504-0.216
		c0.288-0.288,0.288-0.72,0-1.008l-0.504-0.504c1.152-0.936,2.52-1.512,4.104-1.656v0.648c0,0.432,0.288,0.72,0.72,0.72
		c0.432,0,0.72-0.288,0.72-0.72v-0.648c1.512,0.144,2.952,0.72,4.104,1.656l-0.504,0.504c-0.288,0.288-0.288,0.72,0,1.008
		c0.144,0.144,0.36,0.216,0.504,0.216c0.216,0,0.36-0.072,0.504-0.216l0.504-0.504c0.936,1.152,1.512,2.52,1.656,4.104h-0.648
		c-0.432,0-0.72,0.288-0.72,0.72S26.166,28.328,26.598,28.328z"/>
	<path fill="#1E0F00" d="M21.99,28.904c0.216-0.36,0.36-0.792,0.36-1.224c0-1.44-1.152-2.52-2.52-2.52c-1.44,0-2.52,1.152-2.52,2.52
		c0,1.44,1.152,2.52,2.52,2.52c0.432,0,0.792-0.144,1.152-0.288l1.944,1.944c0.144,0.144,0.36,0.216,0.504,0.216
		c0.216,0,0.36-0.072,0.504-0.216c0.288-0.288,0.288-0.72,0-1.008L21.99,28.904z M18.678,27.608c0-0.648,0.504-1.08,1.08-1.08
		c0.648,0,1.08,0.504,1.08,1.08c0,0.648-0.504,1.08-1.08,1.08C19.11,28.76,18.678,28.256,18.678,27.608z"/>
</g>
</svg>
