<?xml version="1.0" encoding="utf-8"?>
<!-- Generator: Adobe Illustrator 18.1.1, SVG Export Plug-In . SVG Version: 6.00 Build 0)  -->
<svg version="1.1" id="Слой_1" xmlns="http://www.w3.org/2000/svg" xmlns:xlink="http://www.w3.org/1999/xlink" x="0px" y="0px"
	 viewBox="0 0 45.833 46.667" enable-background="new 0 0 45.833 46.667" xml:space="preserve">
<g>
	<path fill="none" d="M14.955,15.596c-0.312-0.047-0.529-0.404-0.529-0.695c0-1.983,0-3.965,0-5.948c0-2.102,0-4.203,0-6.305
		c-1.132,0-2.264,0-3.396,0c0,1.742,0,3.483,0,5.225c0,2.341,0,4.681,0,7.022c0,0.289-0.217,0.65-0.529,0.695
		c-0.258,0.037-0.514,0.09-0.763,0.169c-0.112,0.036-0.224,0.073-0.333,0.116c-0.035,0.014-0.038,0.015-0.048,0.018
		C9.346,15.9,9.346,15.9,9.318,15.914c-0.043,0.02-0.085,0.04-0.128,0.06c-0.211,0.105-0.418,0.221-0.614,0.354
		c-0.09,0.061-0.178,0.123-0.265,0.189c-0.018,0.016-0.104,0.085-0.104,0.085c-0.037,0.031-0.073,0.062-0.109,0.094
		c-0.709,0.632-1.285,1.444-1.6,2.245c-0.315,0.801-0.459,1.492-0.459,2.275c0,0.116,0,0.232,0,0.349c0,2.359,0,4.719,0,7.078
		c0,3.269,0,6.539,0,9.808c0,1.101,0,2.202,0,3.303c0,0.264,0,0.528,0,0.792c0,0.041,0,0.082,0,0.124
		c0,0.024,0.017,0.178,0.015,0.198c0.022,0.11,0.05,0.219,0.09,0.324c0.015,0.029,0.046,0.095,0.05,0.102
		c0.033,0.058,0.066,0.116,0.105,0.171c0.018,0.025,0.017,0.026,0.023,0.035c0.008,0.008,0.009,0.007,0.029,0.029
		c0.045,0.049,0.09,0.098,0.14,0.143c0.025,0.023,0.051,0.045,0.077,0.067c0.008,0.006,0.015,0.01,0.038,0.027
		c0.056,0.036,0.113,0.073,0.172,0.104c0.01,0.005,0.124,0.053,0.122,0.056c0.048,0.017,0.096,0.035,0.145,0.047
		c0.053,0.014,0.107,0.025,0.162,0.036c0.026,0.001,0.118,0.011,0.127,0.011c0.027,0,0.053,0.001,0.079,0.001
		c0.09,0,0.179,0,0.269,0c0.49,0,0.98,0,1.469,0c1.606,0,3.211,0,4.817,0c1.268,0,2.536,0,3.804,0c0.099,0,0.199,0,0.298,0
		c0.005,0,0.011,0,0.016,0c0.057-0.001,0.114-0.004,0.17-0.009c0.025-0.006,0.112-0.02,0.121-0.023
		c0.065-0.017,0.131-0.034,0.195-0.057c0.03-0.011,0.031-0.01,0.042-0.013c0.01-0.006,0.008-0.006,0.032-0.019
		c0.059-0.031,0.117-0.062,0.173-0.098c0.009-0.006,0.089-0.068,0.1-0.074c0.055-0.048,0.109-0.096,0.158-0.149
		c0.007-0.008,0.055-0.071,0.072-0.091c0.061-0.091,0.118-0.184,0.164-0.284c0.011-0.031,0.037-0.1,0.039-0.107
		c0.019-0.065,0.038-0.131,0.05-0.198c0.006-0.033,0.008-0.035,0.01-0.045c0-0.012-0.001-0.011,0-0.039
		c0.003-0.063,0.005-0.079,0.005-0.142c0-0.036,0-0.072,0-0.108c0-0.818,0-1.636,0-2.454c-1.818,0-3.636,0-5.454,0
		c-0.393,0-0.72-0.328-0.72-0.72c0-0.355,0-0.71,0-1.065c0-2.984,0-5.968,0-8.953c0-2.08,0-4.161,0-6.241
		c0-0.393,0.328-0.72,0.72-0.72c1.818,0,3.636,0,5.454,0c0-0.401,0-0.802,0-1.203C19.402,18.638,17.602,15.992,14.955,15.596z"/>
	<path fill="none" d="M19.417,38.321c0-0.675,0-1.35,0-2.025c0-2.309,0-4.618,0-6.927c0-0.997,0-1.994,0-2.992
		c0-0.843,0-1.686,0-2.529c-1.578,0-3.156,0-4.734,0c0,0.115,0,0.23,0,0.345c0,2.984,0,5.968,0,8.953c0,1.84,0,3.681,0,5.521
		c1.578,0,3.156,0,4.734,0C19.417,38.551,19.417,38.436,19.417,38.321z"/>
	<path fill="none" d="M38.77,27.878c-1.122,0.162-2.231,0.128-3.353-0.027c-0.737-0.102-1.467-0.254-2.185-0.449
		c-0.712-0.194-1.249-0.323-1.971-0.315c-0.174,0.002-0.349,0.008-0.522,0.024c-0.061,0.006-0.122,0.012-0.184,0.019
		c-0.031,0.005-0.116,0.016-0.122,0.017c-0.266,0.044-0.531,0.101-0.79,0.175c-0.256,0.074-0.51,0.159-0.757,0.26
		c-0.016,0.007-0.012,0.005-0.021,0.008c-0.008,0.004-0.003,0.002-0.018,0.008c-0.05,0.022-0.101,0.045-0.151,0.068
		c-0.095,0.045-0.189,0.09-0.282,0.138c-0.302,0.157-0.595,0.332-0.873,0.529c-0.039,0.028-0.077,0.056-0.116,0.085
		c-0.022,0.018-0.044,0.035-0.065,0.054c-0.034,0.03-0.075,0.046-0.112,0.069c0.002,0.052,0.002,0.104,0.006,0.156
		c0.005,0.071,0.011,0.142,0.018,0.213c0.001,0.006,0.01,0.081,0.014,0.117c0.084,0.554,0.227,1.099,0.441,1.617
		c0.017,0.037,0.064,0.144,0.071,0.159c0.029,0.061,0.058,0.123,0.089,0.183c0.062,0.12,0.125,0.24,0.194,0.357
		c0.137,0.232,0.284,0.459,0.446,0.674c0.008,0.01,0.007,0.009,0.012,0.016c0.027,0.034,0.055,0.069,0.083,0.103
		c0.043,0.052,0.086,0.103,0.13,0.154c0.089,0.101,0.179,0.2,0.274,0.296c0.189,0.191,0.386,0.374,0.596,0.542
		c0.03,0.024,0.043,0.034,0.048,0.038c0.024,0.018,0.048,0.036,0.073,0.054c0.055,0.039,0.109,0.079,0.165,0.117
		c0.111,0.076,0.224,0.15,0.34,0.22c0.232,0.14,0.471,0.269,0.718,0.381c0.035,0.016,0.071,0.032,0.106,0.047
		c0.011,0.004,0.013,0.005,0.035,0.014c0.064,0.025,0.127,0.05,0.192,0.073c0.129,0.047,0.259,0.091,0.391,0.13
		c0.266,0.079,0.537,0.145,0.811,0.191c0.026,0.004,0.3,0.042,0.157,0.026c0.07,0.008,0.141,0.016,0.211,0.023
		c0.142,0.012,0.285,0.022,0.428,0.026c0.287,0.007,0.575,0.002,0.861-0.026c0.026-0.003,0.303-0.036,0.16-0.015
		c0.07-0.01,0.139-0.021,0.208-0.033c0.137-0.025,0.274-0.051,0.41-0.084c0.268-0.065,0.533-0.141,0.792-0.238
		c0.074-0.028,0.148-0.056,0.221-0.086c0.025-0.012,0.105-0.046,0.111-0.049c0.123-0.057,0.245-0.116,0.365-0.18
		c0.238-0.128,0.471-0.266,0.692-0.421c0.265-0.185,0.324-0.227,0.591-0.472c0.198-0.182,0.388-0.372,0.564-0.575
		c0.059-0.068,0.117-0.136,0.173-0.206c0.026-0.032,0.03-0.037,0.036-0.044c0.007-0.009,0.004-0.006,0.017-0.023
		c0.08-0.108,0.159-0.218,0.233-0.33c0.148-0.226,0.286-0.459,0.407-0.701c0.217-0.434,0.398-0.918,0.521-1.505
		c0.031-0.15,0.059-0.3,0.081-0.451c0.004-0.034,0.013-0.114,0.014-0.12c0.007-0.071,0.014-0.142,0.018-0.213
		c0.011-0.172,0.018-0.344,0.018-0.517c0-0.147,0-0.294,0-0.441c0-0.027,0-0.053,0-0.08C39.45,27.763,39.095,27.831,38.77,27.878z"
		/>
	<path fill="#1E0F00" d="M15.867,14.317c0-2.147,0-4.293,0-6.44c0-1.742,0-3.485,0-5.227c0.506,0,1.012,0,1.518,0
		c0.393,0,0.72-0.328,0.72-0.72c0-0.393-0.328-0.72-0.72-0.72c-0.746,0-1.492,0-2.238,0c-1.612,0-3.224,0-4.836,0
		c-0.213,0-0.426,0-0.639,0c-0.55,0-1.1,0-1.651,0c-0.393,0-0.72,0.328-0.72,0.72c0,0.393,0.328,0.72,0.72,0.72
		c0.523,0,1.046,0,1.569,0c0,2.101,0,4.201,0,6.302c0,1.792,0,3.584,0,5.377c-2.328,0.583-4.073,2.677-4.719,4.931
		c-0.264,0.922-0.272,1.851-0.272,2.796c0,2.646,0,5.291,0,7.937c0,3.178,0,6.355,0,9.533c0,0.913,0,1.827,0,2.74
		c0,0.135,0,0.269,0,0.404c0,1.329,1.012,2.543,2.334,2.744c0.359,0.055,0.714,0.045,1.075,0.045c0.588,0,1.177,0,1.765,0
		c1.645,0,3.289,0,4.934,0c1.096,0,2.192,0,3.288,0c0.978,0,1.802-0.432,2.38-1.214c0.362-0.49,0.484-1.111,0.484-1.708
		c0-1.05,0-2.099,0-3.149c0-1.078,0-2.155,0-3.233c0-1.003,0-2.005,0-3.008c0-2.301,0-4.601,0-6.902c0-0.684,0-1.367,0-2.051
		c0-0.355,0-0.71,0-1.065c0-0.641,0-1.282,0-1.923C20.84,18.231,18.836,15.069,15.867,14.317z M14.684,33.145
		c0-2.984,0-5.968,0-8.953c0-0.115,0-0.23,0-0.345c1.578,0,3.156,0,4.734,0c0,0.843,0,1.686,0,2.529c0,0.997,0,1.994,0,2.992
		c0,2.309,0,4.618,0,6.927c0,0.675,0,1.35,0,2.025c0,0.115,0,0.23,0,0.345c-1.578,0-3.156,0-4.734,0
		C14.684,36.825,14.684,34.985,14.684,33.145z M19.417,22.407c-1.818,0-3.636,0-5.454,0c-0.393,0-0.72,0.328-0.72,0.72
		c0,2.08,0,4.161,0,6.241c0,2.984,0,5.968,0,8.953c0,0.355,0,0.71,0,1.065c0,0.393,0.328,0.72,0.72,0.72c1.818,0,3.636,0,5.454,0
		c0,0.818,0,1.636,0,2.454c0,0.036,0,0.072,0,0.108c0,0.063-0.002,0.079-0.005,0.142c-0.001,0.028,0,0.027,0,0.039
		c-0.003,0.01-0.004,0.012-0.01,0.045c-0.012,0.067-0.031,0.133-0.05,0.198c-0.002,0.008-0.028,0.076-0.039,0.107
		c-0.046,0.099-0.103,0.193-0.164,0.284c-0.017,0.02-0.066,0.083-0.072,0.091c-0.048,0.054-0.103,0.102-0.158,0.149
		c-0.012,0.006-0.091,0.068-0.1,0.074c-0.055,0.036-0.114,0.067-0.173,0.098c-0.024,0.013-0.023,0.013-0.032,0.019
		c-0.01,0.003-0.012,0.002-0.042,0.013c-0.064,0.023-0.129,0.04-0.195,0.057c-0.01,0.002-0.096,0.017-0.121,0.023
		c-0.057,0.005-0.113,0.008-0.17,0.009c-0.005,0-0.011,0-0.016,0c-0.099,0-0.199,0-0.298,0c-1.268,0-2.536,0-3.804,0
		c-1.606,0-3.211,0-4.817,0c-0.49,0-0.979,0-1.469,0c-0.09,0-0.179,0-0.269,0c-0.026,0-0.052-0.001-0.079-0.001
		c-0.009,0-0.102-0.01-0.127-0.011c-0.054-0.01-0.108-0.022-0.162-0.036c-0.049-0.013-0.097-0.03-0.145-0.047
		c0.002-0.003-0.112-0.051-0.122-0.056c-0.059-0.031-0.116-0.067-0.172-0.104c-0.024-0.017-0.03-0.021-0.038-0.027
		c-0.026-0.022-0.052-0.044-0.077-0.067c-0.049-0.044-0.095-0.094-0.14-0.143c-0.02-0.022-0.021-0.021-0.029-0.029
		c-0.006-0.009-0.005-0.01-0.023-0.035c-0.039-0.055-0.072-0.113-0.105-0.171c-0.004-0.007-0.035-0.073-0.05-0.102
		c-0.04-0.105-0.068-0.214-0.09-0.324c0.002-0.019-0.015-0.174-0.015-0.198c0-0.041,0-0.082,0-0.124c0-0.264,0-0.528,0-0.792
		c0-1.101,0-2.202,0-3.303c0-3.269,0-6.539,0-9.808c0-2.359,0-4.719,0-7.078c0-0.116,0-0.233,0-0.349
		c0-0.783,0.143-1.474,0.459-2.275c0.315-0.801,0.892-1.613,1.6-2.245c0.036-0.032,0.072-0.063,0.109-0.094
		c0,0,0.085-0.069,0.104-0.085c0.086-0.065,0.175-0.128,0.265-0.189c0.196-0.132,0.402-0.248,0.614-0.354
		c0.042-0.021,0.085-0.041,0.128-0.06c0.029-0.013,0.029-0.014,0.04-0.019c0.01-0.004,0.014-0.004,0.048-0.018
		c0.109-0.044,0.221-0.081,0.333-0.116c0.249-0.079,0.505-0.132,0.763-0.169c0.312-0.044,0.529-0.405,0.529-0.695
		c0-2.341,0-4.681,0-7.022c0-1.742,0-3.483,0-5.225c1.132,0,2.264,0,3.396,0c0,2.102,0,4.203,0,6.305c0,1.983,0,3.965,0,5.948
		c0,0.291,0.217,0.648,0.529,0.695c2.646,0.396,4.446,3.042,4.462,5.608C19.417,21.605,19.417,22.006,19.417,22.407z"/>
	<path fill="#1E0F00" d="M40.513,21.326c-0.393,0-0.72,0.328-0.72,0.72c0,1.195,0,2.39,0,3.584c0,0.158,0,0.315,0,0.473
		c-0.028,0.014-0.069,0.033-0.107,0.05c-0.085,0.034-0.171,0.067-0.257,0.096c-0.295,0.098-0.6,0.167-0.906,0.218
		c-0.045,0.008-0.09,0.014-0.135,0.021c0,0,0,0,0,0c-0.1,0.012-0.2,0.022-0.3,0.031c-0.245,0.022-0.491,0.031-0.737,0.034
		c-1.348,0.015-2.511-0.207-3.832-0.568c-1.354-0.369-2.699-0.445-4.068-0.105c-0.757,0.188-1.523,0.508-2.211,0.929
		c0-0.932,0-1.863,0-2.795c0-0.656,0-1.313,0-1.969c0-0.393-0.328-0.72-0.72-0.72c-0.393,0-0.72,0.328-0.72,0.72
		c0,1.195,0,2.39,0,3.585c0,1.353-0.098,2.761,0.154,4.097c0.442,2.341,2.086,4.406,4.228,5.425
		c0.831,0.395,1.718,0.629,2.616,0.712c0,2.384,0,4.768,0,7.153c0,0.324,0,0.649,0,0.973c-0.797,0-1.595,0-2.393,0
		c-0.393,0-0.72,0.328-0.72,0.72c0,0.393,0.328,0.72,0.72,0.72c0.996,0,1.992,0,2.988,0c0.042,0.008,0.081,0.026,0.125,0.026
		s0.083-0.018,0.125-0.026c0.979,0,1.958,0,2.936,0c0.393,0,0.72-0.328,0.72-0.72c0-0.393-0.328-0.72-0.72-0.72
		c-0.78,0-1.561,0-2.341,0c0-2.317,0-4.634,0-6.951c0-0.395,0-0.79,0-1.186c1.076-0.1,2.135-0.409,3.097-0.95
		c2.157-1.213,3.54-3.422,3.849-5.853c0.066-0.518,0.052-1.042,0.052-1.563c0-0.755,0-1.51,0-2.265c0-1.059,0-2.118,0-3.177
		C41.233,21.654,40.905,21.326,40.513,21.326z M39.792,28.181c0,0.173-0.006,0.345-0.018,0.517
		c-0.005,0.071-0.012,0.142-0.018,0.213c-0.001,0.006-0.01,0.085-0.014,0.12c-0.022,0.151-0.049,0.302-0.081,0.451
		c-0.123,0.587-0.304,1.071-0.521,1.505c-0.121,0.242-0.259,0.475-0.407,0.701c-0.074,0.113-0.152,0.222-0.233,0.33
		c-0.012,0.017-0.01,0.014-0.017,0.023c-0.006,0.006-0.01,0.011-0.036,0.044c-0.056,0.07-0.114,0.138-0.173,0.206
		c-0.176,0.203-0.366,0.393-0.564,0.575c-0.267,0.245-0.326,0.288-0.591,0.472c-0.222,0.154-0.454,0.293-0.692,0.421
		c-0.12,0.064-0.242,0.123-0.365,0.18c-0.006,0.003-0.086,0.037-0.111,0.049c-0.073,0.03-0.147,0.058-0.221,0.086
		c-0.258,0.096-0.524,0.173-0.792,0.238c-0.136,0.033-0.273,0.059-0.41,0.084c-0.069,0.012-0.139,0.023-0.208,0.033
		c0.143-0.021-0.134,0.013-0.16,0.015c-0.286,0.028-0.574,0.033-0.861,0.026c-0.143-0.004-0.286-0.014-0.428-0.026
		c-0.071-0.006-0.141-0.014-0.211-0.023c0.143,0.017-0.131-0.021-0.157-0.026c-0.274-0.046-0.544-0.113-0.811-0.191
		c-0.132-0.039-0.262-0.084-0.391-0.13c-0.064-0.023-0.128-0.048-0.192-0.073c-0.022-0.009-0.024-0.01-0.035-0.014
		c-0.036-0.016-0.071-0.031-0.106-0.047c-0.247-0.112-0.486-0.241-0.718-0.381c-0.116-0.069-0.228-0.144-0.34-0.22
		c-0.056-0.038-0.11-0.078-0.165-0.117c-0.024-0.018-0.049-0.036-0.073-0.054c-0.004-0.004-0.018-0.015-0.048-0.038
		c-0.21-0.168-0.407-0.351-0.596-0.542c-0.095-0.095-0.185-0.195-0.274-0.296c-0.044-0.05-0.088-0.102-0.13-0.154
		c-0.028-0.034-0.056-0.068-0.083-0.103c-0.005-0.007-0.005-0.006-0.012-0.016c-0.163-0.215-0.31-0.442-0.446-0.674
		c-0.069-0.117-0.132-0.236-0.194-0.357c-0.031-0.06-0.06-0.122-0.089-0.183c-0.007-0.015-0.054-0.122-0.071-0.159
		c-0.214-0.518-0.357-1.063-0.441-1.617c-0.004-0.036-0.014-0.111-0.014-0.117c-0.008-0.071-0.013-0.142-0.018-0.213
		c-0.004-0.052-0.004-0.104-0.006-0.156c0.037-0.024,0.078-0.039,0.112-0.069c0.021-0.019,0.043-0.036,0.065-0.054
		c0.038-0.029,0.077-0.057,0.116-0.085c0.277-0.198,0.571-0.372,0.873-0.529c0.093-0.048,0.187-0.094,0.282-0.138
		c0.05-0.023,0.1-0.046,0.151-0.068c0.014-0.006,0.009-0.004,0.018-0.008c0.009-0.004,0.004-0.002,0.021-0.008
		c0.247-0.101,0.5-0.186,0.757-0.26c0.259-0.075,0.524-0.131,0.79-0.175c0.006-0.001,0.091-0.012,0.122-0.017
		c0.061-0.007,0.122-0.013,0.184-0.019c0.174-0.016,0.348-0.022,0.522-0.024c0.722-0.008,1.259,0.121,1.971,0.315
		c0.718,0.196,1.448,0.348,2.185,0.449c1.122,0.155,2.231,0.189,3.353,0.027c0.325-0.047,0.68-0.115,1.023-0.218
		c0,0.027,0,0.053,0,0.08C39.792,27.887,39.792,28.034,39.792,28.181z"/>
</g>
</svg>
