<?xml version="1.0" encoding="utf-8"?>
<!-- Generator: Adobe Illustrator 18.1.1, SVG Export Plug-In . SVG Version: 6.00 Build 0)  -->
<svg version="1.1" id="Слой_1" xmlns="http://www.w3.org/2000/svg" xmlns:xlink="http://www.w3.org/1999/xlink" x="0px" y="0px"
	 viewBox="0 0 60 30" enable-background="new 0 0 60 30" xml:space="preserve">
<g>
	<polygon fill="none" points="27.491,9.601 29.775,9.601 29.775,21.945 31.929,21.945 31.929,9.601 34.254,9.601 34.254,7.574 
		27.491,7.574 	"/>
	<path fill="none" d="M13.223,12.759c-0.627,0-0.929,0.493-0.929,1.494v4.555c0,1.007,0.302,1.505,0.929,1.505
		c0.639,0,0.943-0.498,0.943-1.505v-4.555C14.166,13.252,13.862,12.759,13.223,12.759z"/>
	<path fill="none" d="M38.172,19.425c-0.429,0.607-0.836,0.902-1.225,0.902c-0.256,0-0.404-0.147-0.449-0.452
		c-0.024-0.06-0.024-0.298-0.024-0.758v-7.876h-1.94v8.463c0,0.759,0.068,1.269,0.173,1.589c0.197,0.543,0.624,0.801,1.248,0.801
		c0.719,0,1.448-0.433,2.217-1.316v1.167h1.936V11.241h-1.936V19.425z"/>
	<path fill="none" d="M51.914,11.114c-0.99,0-1.763,0.357-2.323,1.095c-0.413,0.539-0.599,1.378-0.599,2.522v3.751
		c0,1.136,0.213,1.981,0.621,2.509c0.563,0.734,1.335,1.104,2.349,1.104c1.011,0,1.81-0.382,2.348-1.163
		c0.238-0.342,0.387-0.739,0.45-1.162c0.023-0.192,0.047-0.624,0.047-1.253v-0.282h-1.984c0,0.778-0.022,1.208-0.04,1.32
		c-0.113,0.512-0.392,0.772-0.869,0.772c-0.668,0-0.99-0.493-0.99-1.483v-1.899h3.883V14.73c0-1.144-0.2-1.983-0.602-2.522
		C53.663,11.47,52.891,11.114,51.914,11.114z M52.868,15.329h-1.944V14.34c0-0.993,0.322-1.486,0.969-1.486
		c0.647,0,0.975,0.493,0.975,1.486V15.329z"/>
	<path fill="none" d="M45.741,11.114c-0.718,0-1.384,0.386-2.007,1.158V7.574h-1.94v14.371h1.94v-1.038
		c0.643,0.805,1.314,1.187,2.007,1.187c0.771,0,1.289-0.411,1.545-1.205c0.126-0.449,0.197-1.167,0.197-2.158v-4.261
		c0-1.013-0.071-1.722-0.197-2.153C47.03,11.518,46.512,11.114,45.741,11.114z M45.542,18.884c0,0.961-0.284,1.443-0.844,1.443
		c-0.32,0-0.64-0.147-0.964-0.481v-6.52c0.324-0.319,0.643-0.471,0.964-0.471c0.561,0,0.844,0.493,0.844,1.461V18.884z"/>
	<path fill="#1E0F00" d="M51.893,12.854c-0.647,0-0.969,0.493-0.969,1.486v0.988h1.944V14.34
		C52.868,13.347,52.54,12.854,51.893,12.854z"/>
	<path fill="#1E0F00" d="M21.411,19.397c-0.437,0.61-0.844,0.915-1.237,0.915c-0.262,0-0.417-0.157-0.459-0.467
		c-0.026-0.061-0.026-0.303-0.026-0.757v-7.967h-1.952v8.553c0,0.768,0.067,1.283,0.172,1.614c0.202,0.548,0.634,0.806,1.266,0.806
		c0.713,0,1.46-0.437,2.234-1.332v1.179h1.963V11.121h-1.963V19.397z"/>
	<path fill="#1E0F00" d="M56.641,7.409c-0.394-1.701-1.791-2.956-3.472-3.152c-3.982-0.443-8.005-0.445-12.019-0.443
		c-4.008-0.002-8.037,0-12.019,0.443c-1.678,0.196-3.072,1.451-3.468,3.152c-0.561,2.433-0.561,5.087-0.561,7.591
		c0,2.503,0,5.154,0.555,7.586c0.398,1.711,1.786,2.968,3.469,3.155c3.979,0.444,8.008,0.444,12.018,0.444
		c4.014,0,8.041,0,12.016-0.444c1.686-0.186,3.082-1.443,3.473-3.155c0.557-2.432,0.565-5.084,0.565-7.586
		C57.198,12.497,57.198,9.842,56.641,7.409z M34.254,9.601h-2.324v12.343h-2.154V9.601h-2.284V7.574h6.763V9.601z M40.108,21.945
		h-1.936v-1.167c-0.769,0.882-1.498,1.316-2.217,1.316c-0.624,0-1.052-0.258-1.248-0.801c-0.105-0.32-0.173-0.83-0.173-1.589v-8.463
		h1.94v7.876c0,0.46,0,0.697,0.024,0.758c0.045,0.305,0.193,0.452,0.449,0.452c0.39,0,0.796-0.295,1.225-0.902v-8.184h1.936V21.945z
		 M47.483,18.731c0,0.991-0.071,1.709-0.197,2.158c-0.255,0.794-0.774,1.205-1.545,1.205c-0.693,0-1.364-0.382-2.007-1.187v1.038
		h-1.94V7.574h1.94v4.698c0.623-0.772,1.289-1.158,2.007-1.158c0.771,0,1.289,0.404,1.545,1.203c0.126,0.431,0.197,1.14,0.197,2.153
		V18.731z M54.807,16.945h-3.883v1.899c0,0.99,0.322,1.483,0.99,1.483c0.478,0,0.756-0.26,0.869-0.772
		c0.018-0.112,0.04-0.541,0.04-1.32h1.984v0.282c0,0.629-0.024,1.061-0.047,1.253c-0.063,0.423-0.212,0.82-0.45,1.162
		c-0.538,0.781-1.337,1.163-2.348,1.163c-1.013,0-1.786-0.37-2.349-1.104c-0.409-0.528-0.621-1.372-0.621-2.509V14.73
		c0-1.144,0.186-1.983,0.599-2.522c0.56-0.738,1.333-1.095,2.323-1.095c0.977,0,1.749,0.357,2.291,1.095
		c0.402,0.539,0.602,1.378,0.602,2.522V16.945z"/>
	<path fill="#1E0F00" d="M13.223,10.996c-0.969,0-1.742,0.368-2.274,1.108c-0.418,0.545-0.615,1.388-0.615,2.549v3.786
		c0,1.15,0.197,2.003,0.615,2.545c0.532,0.733,1.305,1.109,2.274,1.109c0.985,0,1.75-0.376,2.291-1.109
		c0.41-0.542,0.609-1.395,0.609-2.545v-3.786c0-1.161-0.199-2.004-0.609-2.549C14.973,11.364,14.208,10.996,13.223,10.996z
		 M14.166,18.808c0,1.007-0.304,1.505-0.943,1.505c-0.627,0-0.929-0.498-0.929-1.505v-4.555c0-1.001,0.302-1.494,0.929-1.494
		c0.639,0,0.943,0.493,0.943,1.494V18.808z"/>
	<path fill="#1E0F00" d="M44.698,12.854c-0.32,0-0.64,0.152-0.964,0.471v6.52c0.324,0.334,0.643,0.481,0.964,0.481
		c0.561,0,0.844-0.481,0.844-1.443v-4.568C45.542,13.347,45.258,12.854,44.698,12.854z"/>
	<path fill="#1E0F00" d="M6.632,13.128l-1.54-5.703h-2.29c0.458,1.346,0.936,2.697,1.394,4.045c0.694,2.022,1.131,3.556,1.333,4.595
		v5.874h2.172v-5.874l2.614-8.64h-2.2L6.632,13.128z"/>
</g>
</svg>
