<?xml version="1.0" encoding="utf-8"?>
<!-- Generator: Adobe Illustrator 18.1.1, SVG Export Plug-In . SVG Version: 6.00 Build 0)  -->
<svg version="1.1" id="Слой_1" xmlns="http://www.w3.org/2000/svg" xmlns:xlink="http://www.w3.org/1999/xlink" x="0px" y="0px"
	 viewBox="0 0 411.334 54.568" enable-background="new 0 0 411.334 54.568" xml:space="preserve">
<g>
	<path fill="#FFFFFF" d="M578.111,782.123h3.277c1.837,0,2.989,0.811,2.989,2.305c0,0.937-0.486,1.675-1.369,1.999v0.036
		c1.171,0.233,1.837,1.116,1.837,2.179c0,1.566-1.242,2.538-3.277,2.538h-3.457V782.123z M581.262,786.049
		c1.225,0,1.854-0.576,1.854-1.549s-0.648-1.44-1.927-1.44h-1.854v2.989H581.262z M581.406,790.226c1.494,0,2.178-0.63,2.178-1.603
		c0-1.063-0.792-1.639-2.196-1.639h-2.053v3.241H581.406z"/>
	<path fill="#FFFFFF" d="M587.164,782.123h1.225v3.457h1.944c1.621,0,3.169,0.685,3.169,2.827c0,1.639-1.025,2.772-3.204,2.772
		h-3.134V782.123z M590.19,790.208c1.458,0,2.053-0.738,2.053-1.819c0-1.098-0.612-1.836-2.035-1.836h-1.818v3.655H590.19z
		 M595.033,782.123h1.224v9.057h-1.224V782.123z"/>
	<path fill="#FFFFFF" d="M602.501,779.639l3.35-1.566l0.45,1.026l-3.493,1.603c-2.053,0.972-2.773,2.269-2.899,4.177h0.036
		c0.811-1.458,2.035-1.908,3.386-1.908c2.214,0,3.835,1.548,3.835,4.177c0,2.503-1.692,4.249-4.124,4.249
		c-2.971,0-4.267-2.286-4.267-5.347C598.775,782.988,599.494,781.007,602.501,779.639z M603.006,790.316
		c1.603,0,2.898-1.17,2.898-3.15c0-1.999-1.296-3.169-2.827-3.169c-1.765,0-2.971,1.368-2.971,3.133
		C600.107,789.146,601.421,790.316,603.006,790.316z"/>
	<path fill="#FFFFFF" d="M613.41,781.908c2.502,0,3.78,1.927,3.78,4.177c0,0.198-0.018,0.414-0.036,0.612h-6.949
		c0.054,2.305,1.638,3.583,3.511,3.583c0.99,0,2.017-0.414,2.755-1.08l0.558,0.937c-0.846,0.774-2.16,1.26-3.349,1.26
		c-2.701,0-4.753-1.944-4.753-4.735C608.927,783.69,610.961,781.908,613.41,781.908z M615.948,785.725
		c-0.072-1.891-1.225-2.81-2.574-2.81c-1.513,0-2.827,0.99-3.115,2.81H615.948z"/>
	<path fill="#FFFFFF" d="M619.492,782.123h1.171v0.954c0,0.396-0.054,0.702-0.054,0.702h0.035c0.559-1.17,1.747-1.872,3.151-1.872
		c2.448,0,3.943,1.944,3.943,4.735c0,2.881-1.692,4.753-4.052,4.753c-1.278,0-2.395-0.666-2.988-1.8h-0.036
		c0,0,0.054,0.324,0.054,0.792v4.394h-1.225V782.123z M623.562,790.298c1.603,0,2.936-1.333,2.936-3.638
		c0-2.214-1.188-3.637-2.881-3.637c-1.513,0-2.936,1.08-2.936,3.655C620.681,788.497,621.707,790.298,623.562,790.298z"/>
	<path fill="#FFFFFF" d="M630.094,782.123h1.188v5.942c0,0.558-0.036,1.313-0.054,1.35h0.036c0.036-0.071,0.576-0.846,0.937-1.35
		l4.447-5.942h1.17v9.057h-1.206v-5.96c0-0.521,0.054-1.242,0.054-1.314h-0.036c-0.018,0.091-0.576,0.811-0.918,1.314l-4.447,5.96
		h-1.171V782.123z"/>
	<path fill="#FFFFFF" d="M642.983,783.203h-3.295v-1.08h7.832v1.08h-3.313v7.977h-1.225V783.203z"/>
	<path fill="#FFFFFF" d="M652.883,781.908c2.502,0,3.78,1.927,3.78,4.177c0,0.198-0.018,0.414-0.036,0.612h-6.949
		c0.054,2.305,1.638,3.583,3.511,3.583c0.99,0,2.017-0.414,2.755-1.08l0.558,0.937c-0.846,0.774-2.16,1.26-3.349,1.26
		c-2.701,0-4.753-1.944-4.753-4.735C648.4,783.69,650.434,781.908,652.883,781.908z M655.421,785.725
		c-0.072-1.891-1.225-2.81-2.574-2.81c-1.513,0-2.827,0.99-3.115,2.81H655.421z"/>
	<path fill="#FFFFFF" d="M663.898,793.863c0.792,0,1.368-0.647,1.729-1.476l0.54-1.297l-3.763-8.967h1.35l2.647,6.608
		c0.18,0.45,0.342,0.954,0.342,0.954h0.036c0,0,0.126-0.504,0.306-0.954l2.611-6.608h1.314l-4.466,10.947
		c-0.468,1.152-1.386,1.891-2.593,1.891c-0.936,0-1.603-0.54-1.603-0.54l0.469-0.973
		C662.818,793.449,663.321,793.863,663.898,793.863z"/>
	<path fill="#FFFFFF" d="M672.933,782.123h5.402v1.063h-4.178v7.994h-1.225V782.123z"/>
	<path fill="#FFFFFF" d="M683.951,781.908c2.646,0,4.789,2.017,4.789,4.699c0,2.737-2.143,4.789-4.789,4.789
		c-2.647,0-4.771-2.052-4.771-4.789C679.18,783.924,681.304,781.908,683.951,781.908z M683.951,790.28
		c1.944,0,3.528-1.548,3.528-3.673c0-2.053-1.584-3.601-3.528-3.601c-1.945,0-3.512,1.548-3.512,3.601
		C680.44,788.732,682.006,790.28,683.951,790.28z"/>
	<path fill="#FFFFFF" d="M689.692,790.154c1.512-0.233,2.16-1.944,2.16-5.293v-2.737h5.546v9.057h-1.225v-7.994h-3.133v1.675
		c0,4.285-1.026,6.212-3.349,6.392V790.154z"/>
	<path fill="#FFFFFF" d="M700.329,782.123h1.225v3.457h1.963c1.62,0,3.169,0.685,3.169,2.827c0,1.639-1.026,2.772-3.205,2.772
		h-3.151V782.123z M703.372,790.208c1.459,0,2.053-0.738,2.053-1.819c0-1.098-0.612-1.836-2.034-1.836h-1.837v3.655H703.372z"/>
</g>
<g>
	<g>
		<path fill="#FFFFFF" d="M543.167,786.591c-34,0-79.776-11.757-107.694-44.754l0.805-0.646c27.697,32.736,72.889,44.4,106.889,44.4
			V786.591z"/>
	</g>
	<g>
		<g>
			<path fill="#FFFFFF" d="M436.768,749.784c0.272-0.044,0.457-0.302,0.413-0.575l-1.228-7.55l7.361,2.08
				c0.266,0.075,0.543-0.079,0.618-0.344c0.075-0.266-0.082-0.543-0.346-0.618l-8.117-2.293c-0.164-0.046-0.341-0.006-0.469,0.108
				s-0.188,0.285-0.161,0.453l1.354,8.325c0.017,0.098,0.059,0.184,0.12,0.252C436.423,749.746,436.592,749.812,436.768,749.784z"/>
		</g>
	</g>
</g>
<g>
	<g>
		<path fill="#FFFFFF" d="M738.167,786.591v-1c33,0,79.066-11.664,106.764-44.4l0.805,0.646
			C817.818,774.834,772.167,786.591,738.167,786.591z"/>
	</g>
	<g>
		<g>
			<path fill="#FFFFFF" d="M837.068,743.395c0.075,0.266,0.352,0.42,0.618,0.344l7.361-2.08l-1.228,7.55
				c-0.045,0.273,0.14,0.531,0.413,0.575c0.272,0.044,0.53-0.144,0.575-0.414l1.354-8.325c0.027-0.168-0.033-0.34-0.161-0.453
				c-0.128-0.114-0.305-0.154-0.469-0.108l-8.117,2.293c-0.095,0.028-0.176,0.08-0.237,0.148
				C837.067,743.048,837.021,743.224,837.068,743.395z"/>
		</g>
	</g>
</g>
<g>
	<path fill="#FFFFFF" d="M143.278,41.658h3.277c1.837,0,2.989,0.811,2.989,2.305c0,0.937-0.486,1.675-1.369,1.999v0.036
		c1.171,0.234,1.837,1.116,1.837,2.179c0,1.566-1.242,2.538-3.277,2.538h-3.457V41.658z M146.429,45.584
		c1.225,0,1.854-0.576,1.854-1.549s-0.648-1.44-1.927-1.44h-1.854v2.989H146.429z M146.573,49.762c1.494,0,2.178-0.631,2.178-1.604
		c0-1.063-0.792-1.639-2.196-1.639h-2.053v3.242H146.573z"/>
	<path fill="#FFFFFF" d="M152.331,41.658h1.225v3.457h1.944c1.621,0,3.169,0.685,3.169,2.827c0,1.639-1.025,2.772-3.204,2.772
		h-3.134V41.658z M155.357,49.743c1.458,0,2.053-0.738,2.053-1.819c0-1.098-0.612-1.836-2.035-1.836h-1.818v3.655H155.357z
		 M160.2,41.658h1.224v9.057H160.2V41.658z"/>
	<path fill="#FFFFFF" d="M167.668,39.174l3.35-1.566l0.45,1.026l-3.493,1.603c-2.053,0.973-2.773,2.269-2.899,4.178h0.036
		c0.811-1.459,2.035-1.909,3.386-1.909c2.214,0,3.835,1.548,3.835,4.177c0,2.504-1.692,4.25-4.124,4.25
		c-2.971,0-4.267-2.287-4.267-5.348S164.661,40.543,167.668,39.174z M168.173,49.852c1.603,0,2.898-1.171,2.898-3.151
		c0-1.999-1.296-3.169-2.827-3.169c-1.765,0-2.971,1.368-2.971,3.133C165.274,48.681,166.588,49.852,168.173,49.852z"/>
	<path fill="#FFFFFF" d="M178.577,41.443c2.502,0,3.78,1.927,3.78,4.177c0,0.199-0.018,0.414-0.036,0.613h-6.949
		c0.054,2.305,1.638,3.582,3.511,3.582c0.99,0,2.017-0.414,2.755-1.08l0.558,0.937c-0.846,0.774-2.16,1.261-3.349,1.261
		c-2.701,0-4.753-1.945-4.753-4.736C174.094,43.225,176.128,41.443,178.577,41.443z M181.115,45.26
		c-0.072-1.891-1.225-2.809-2.574-2.809c-1.513,0-2.827,0.99-3.115,2.809H181.115z"/>
	<path fill="#FFFFFF" d="M184.659,41.658h1.171v0.955c0,0.396-0.054,0.701-0.054,0.701h0.035c0.559-1.17,1.747-1.872,3.151-1.872
		c2.448,0,3.943,1.944,3.943,4.735c0,2.881-1.692,4.754-4.052,4.754c-1.278,0-2.395-0.666-2.988-1.801h-0.036
		c0,0,0.054,0.324,0.054,0.793v4.393h-1.225V41.658z M188.729,49.833c1.603,0,2.936-1.333,2.936-3.638
		c0-2.214-1.188-3.637-2.881-3.637c-1.513,0-2.936,1.08-2.936,3.655C185.848,48.033,186.874,49.833,188.729,49.833z"/>
	<path fill="#FFFFFF" d="M195.261,41.658h1.188v5.942c0,0.558-0.036,1.313-0.054,1.351h0.036c0.036-0.072,0.576-0.847,0.937-1.351
		l4.447-5.942h1.17v9.057h-1.206v-5.959c0-0.522,0.054-1.242,0.054-1.314h-0.036c-0.018,0.09-0.576,0.811-0.918,1.314l-4.447,5.959
		h-1.171V41.658z"/>
	<path fill="#FFFFFF" d="M208.15,42.739h-3.295v-1.08h7.832v1.08h-3.313v7.977h-1.225V42.739z"/>
	<path fill="#FFFFFF" d="M218.05,41.443c2.502,0,3.78,1.927,3.78,4.177c0,0.199-0.018,0.414-0.036,0.613h-6.949
		c0.054,2.305,1.638,3.582,3.511,3.582c0.99,0,2.017-0.414,2.755-1.08l0.558,0.937c-0.846,0.774-2.16,1.261-3.349,1.261
		c-2.701,0-4.753-1.945-4.753-4.736C213.567,43.225,215.601,41.443,218.05,41.443z M220.588,45.26
		c-0.072-1.891-1.225-2.809-2.574-2.809c-1.513,0-2.827,0.99-3.115,2.809H220.588z"/>
	<path fill="#FFFFFF" d="M229.065,53.399c0.792,0,1.368-0.648,1.729-1.477l0.54-1.297l-3.763-8.967h1.35l2.647,6.608
		c0.18,0.45,0.342,0.954,0.342,0.954h0.036c0,0,0.126-0.504,0.306-0.954l2.611-6.608h1.314l-4.466,10.947
		c-0.468,1.152-1.386,1.891-2.593,1.891c-0.936,0-1.603-0.539-1.603-0.539l0.469-0.973
		C227.985,52.985,228.488,53.399,229.065,53.399z"/>
	<path fill="#FFFFFF" d="M238.1,41.658h5.402v1.063h-4.178v7.994H238.1V41.658z"/>
	<path fill="#FFFFFF" d="M249.118,41.443c2.646,0,4.789,2.017,4.789,4.7c0,2.736-2.143,4.789-4.789,4.789
		c-2.647,0-4.771-2.053-4.771-4.789C244.347,43.459,246.471,41.443,249.118,41.443z M249.118,49.815
		c1.944,0,3.528-1.548,3.528-3.672c0-2.053-1.584-3.602-3.528-3.602c-1.945,0-3.512,1.549-3.512,3.602
		C245.607,48.267,247.173,49.815,249.118,49.815z"/>
	<path fill="#FFFFFF" d="M254.859,49.69c1.512-0.234,2.16-1.945,2.16-5.294v-2.737h5.546v9.057h-1.225v-7.994h-3.133v1.675
		c0,4.285-1.026,6.212-3.349,6.392V49.69z"/>
	<path fill="#FFFFFF" d="M265.496,41.658h1.225v3.457h1.963c1.62,0,3.169,0.685,3.169,2.827c0,1.639-1.026,2.772-3.205,2.772h-3.151
		V41.658z M268.539,49.743c1.459,0,2.053-0.738,2.053-1.819c0-1.098-0.612-1.836-2.034-1.836h-1.837v3.655H268.539z"/>
</g>
<g>
	<g>
		<path fill="#FFFFFF" d="M108.167,46.127C74.45,46.127,28.474,34.37,0.556,1.372L1.32,0.726
			c27.697,32.737,73.354,44.401,106.847,44.401V46.127z"/>
	</g>
	<g>
		<g>
			<path fill="#FFFFFF" d="M1.935,9.32c0.272-0.044,0.457-0.302,0.413-0.575l-1.228-7.55l7.361,2.08
				C8.747,3.35,9.024,3.195,9.099,2.93S9.016,2.387,8.753,2.312L0.636,0.019C0.472-0.027,0.295,0.013,0.167,0.127
				S-0.021,0.412,0.006,0.58L1.36,8.906c0.017,0.098,0.059,0.184,0.12,0.252C1.59,9.281,1.76,9.348,1.935,9.32z"/>
		</g>
	</g>
</g>
<g>
	<g>
		<path fill="#FFFFFF" d="M303.167,46.127v-1c33.493,0,79.15-11.664,106.847-44.401l0.764,0.646
			C382.86,34.37,336.884,46.127,303.167,46.127z"/>
	</g>
	<g>
		<g>
			<path fill="#FFFFFF" d="M402.236,2.93c0.075,0.265,0.352,0.42,0.618,0.344l7.361-2.08l-1.228,7.55
				c-0.045,0.273,0.14,0.531,0.413,0.575c0.272,0.044,0.53-0.144,0.575-0.414l1.354-8.325c0.027-0.168-0.033-0.34-0.161-0.453
				s-0.305-0.154-0.469-0.108l-8.117,2.293c-0.095,0.028-0.176,0.08-0.237,0.148C402.234,2.584,402.188,2.759,402.236,2.93z"/>
		</g>
	</g>
</g>
</svg>
