<?xml version="1.0" encoding="utf-8"?>
<!-- Generator: Adobe Illustrator 18.1.1, SVG Export Plug-In . SVG Version: 6.00 Build 0)  -->
<svg version="1.1" id="Слой_1" xmlns="http://www.w3.org/2000/svg" xmlns:xlink="http://www.w3.org/1999/xlink" x="0px" y="0px"
	 viewBox="0 0 128.378 37.969" enable-background="new 0 0 128.378 37.969" xml:space="preserve">
<g>
	<g>
		<path fill-rule="evenodd" clip-rule="evenodd" fill="#1D1D1B" d="M74.86,24.174c4.471,0,8.12-3.649,8.12-8.12
			c0-4.471-3.649-8.12-8.12-8.12c-2.723,0-5.14,1.353-6.614,3.421V1.192H66.74v14.862C66.74,20.526,70.388,24.174,74.86,24.174
			L74.86,24.174z M74.86,22.675c-3.646,0-6.621-2.975-6.621-6.621s2.975-6.621,6.621-6.621c3.646,0,6.621,2.975,6.621,6.621
			S78.506,22.675,74.86,22.675z"/>
	</g>
	<g>
		<path fill-rule="evenodd" clip-rule="evenodd" fill="#3683C6" d="M35.209,25.849c5.641-1.475,9.824-6.621,9.824-12.713
			C45.033,5.901,39.132,0,31.896,0C24.661,0,18.76,5.901,18.76,13.136c0,3.308,1.235,6.337,3.265,8.651
			c-1.675-2.103-2.679-4.763-2.679-7.65v0c0-6.778,5.529-12.306,12.306-12.306v0c5.084,0,9.23,4.146,9.23,9.229
			c0,3.813-3.109,6.922-6.922,6.922c-2.072,0-3.609-1.407-5.684-1.342c-2.487,0.079-4.212,1.736-4.267,4.02
			c-0.039,1.651,0.932,3.327,2.243,4.142C28.807,26.391,32.342,26.598,35.209,25.849z"/>
	</g>
	<g>
		<path fill-rule="evenodd" clip-rule="evenodd" fill="#1D1D1B" d="M16.24,16.055c0-4.473-3.648-8.12-8.12-8.12
			c-4.472,0-8.12,3.648-8.12,8.12c0,4.424,3.569,8.04,7.975,8.118v-1.499c-3.58-0.078-6.476-3.021-6.476-6.619
			c0-3.647,2.974-6.621,6.621-6.621s6.621,2.974,6.621,6.621H16.24z"/>
	</g>
	<g>
		<path fill-rule="evenodd" clip-rule="evenodd" fill="#1D1D1B" d="M56.69,7.934c4.471,0,8.12,3.649,8.12,8.12
			c0,4.471-3.649,8.12-8.12,8.12c-2.723,0-5.14-1.353-6.614-3.421v10.163H48.57V16.055C48.57,11.583,52.219,7.934,56.69,7.934
			L56.69,7.934z M56.69,9.434c-3.646,0-6.621,2.975-6.621,6.621s2.975,6.621,6.621,6.621c3.646,0,6.621-2.975,6.621-6.621
			S60.336,9.434,56.69,9.434z"/>
	</g>
	<g>
		<path fill-rule="evenodd" clip-rule="evenodd" fill="#1D1D1B" d="M92.495,16.807h8.265v-0.753c0-4.473-3.648-8.12-8.12-8.12
			s-8.12,3.648-8.12,8.12c0,4.424,3.569,8.04,7.975,8.118v-1.499c-3.58-0.078-6.476-3.021-6.476-6.619
			c0-3.647,2.974-6.621,6.621-6.621c3.389,0,6.197,2.57,6.576,5.86h-6.721V16.807z"/>
	</g>
	<g>
		<polygon fill-rule="evenodd" clip-rule="evenodd" fill="#1D1D1B" points="102.923,8.227 102.923,23.88 104.429,23.88 
			104.429,16.807 112.982,16.807 112.982,23.88 114.488,23.88 114.488,8.227 112.982,8.227 112.982,15.294 104.429,15.294 
			104.429,8.227 		"/>
	</g>
	<g>
		<path fill-rule="evenodd" clip-rule="evenodd" fill="#1D1D1B" d="M121.943,9.733V23.88h1.506V9.733h4.929V8.227
			c-3.789,0-7.575,0-11.364,0v1.506H121.943z"/>
	</g>
</g>
<g>
	<path fill="#1D1D1B" d="M3.476,33.639h0.277v-0.143c0-0.934-0.479-1.254-1.152-1.254c-0.429,0-0.857,0.144-1.202,0.404
		l-0.202-0.286c0.328-0.286,0.892-0.462,1.421-0.462c0.967,0,1.488,0.537,1.488,1.588v2.717H3.753v-0.555
		c0-0.228,0.034-0.379,0.034-0.379H3.77c-0.21,0.547-0.74,1.034-1.471,1.034c-0.681,0-1.429-0.378-1.429-1.22
		C0.869,33.656,2.727,33.639,3.476,33.639z M2.316,35.976c0.916,0,1.438-0.95,1.438-1.782v-0.227H3.484
		c-0.715,0-2.245,0-2.245,1.092C1.24,35.506,1.601,35.976,2.316,35.976z"/>
	<path fill="#1D1D1B" d="M8.048,32h0.353v1.858h0.731L10.511,32h0.446l-1.522,2.001v0.017l1.69,2.187h-0.462l-1.53-2.018H8.401
		v2.018H8.048V32z"/>
	<path fill="#1D1D1B" d="M15.605,32.327h-1.598V32h3.548v0.327h-1.598v3.877h-0.353V32.327z"/>
	<path fill="#1D1D1B" d="M21.018,32h0.353v2.993c0,0.285-0.025,0.681-0.025,0.681h0.017c0,0,0.294-0.421,0.479-0.681L24.137,32
		h0.328v4.204h-0.353v-3.002c0-0.286,0.025-0.656,0.025-0.656h-0.017c0,0-0.294,0.396-0.479,0.656l-2.295,3.002h-0.328V32z"/>
	<path fill="#1D1D1B" d="M28.449,32h1.32c0.858,0,1.379,0.37,1.379,1.067c0,0.454-0.244,0.782-0.672,0.925v0.017
		c0.555,0.102,0.899,0.505,0.899,1.035c0,0.681-0.53,1.16-1.497,1.16h-1.429V32z M29.786,33.866c0.647,0,0.983-0.285,0.983-0.799
		c0-0.513-0.345-0.748-1.017-0.748h-0.95v1.547H29.786z M29.844,35.876c0.799,0,1.161-0.32,1.161-0.832
		c0-0.564-0.429-0.85-1.169-0.85h-1.034v1.682H29.844z"/>
	<path fill="#1D1D1B" d="M35.065,32h0.353v2.993c0,0.285-0.025,0.681-0.025,0.681h0.017c0,0,0.294-0.421,0.479-0.681L38.184,32
		h0.328v4.204h-0.353v-3.002c0-0.286,0.025-0.656,0.025-0.656h-0.017c0,0-0.294,0.396-0.479,0.656l-2.295,3.002h-0.328V32z"/>
	<path fill="#1D1D1B" d="M42.495,32h0.353v0.505c0,0.193-0.025,0.336-0.025,0.336h0.017c0.252-0.589,0.824-0.941,1.513-0.941
		c1.127,0,1.816,0.898,1.816,2.202c0,1.337-0.782,2.203-1.867,2.203c-0.639,0-1.202-0.354-1.471-0.95h-0.017
		c0,0,0.034,0.151,0.034,0.37v2.161h-0.353V32z M44.303,35.96c0.824,0,1.497-0.682,1.497-1.858c0-1.135-0.605-1.858-1.463-1.858
		c-0.773,0-1.497,0.547-1.497,1.867C42.84,35.044,43.362,35.96,44.303,35.96z"/>
	<path fill="#1D1D1B" d="M51.751,31.899c1.202,0,2.177,0.949,2.177,2.178c0,1.252-0.975,2.228-2.177,2.228s-2.178-0.976-2.178-2.228
		C49.573,32.848,50.549,31.899,51.751,31.899z M51.751,35.96c1,0,1.808-0.816,1.808-1.883c0-1.043-0.807-1.834-1.808-1.834
		s-1.808,0.791-1.808,1.834C49.943,35.143,50.75,35.96,51.751,35.96z"/>
	<path fill="#1D1D1B" d="M57.609,32h1.32c0.858,0,1.379,0.37,1.379,1.067c0,0.454-0.244,0.782-0.672,0.925v0.017
		c0.555,0.102,0.899,0.505,0.899,1.035c0,0.681-0.53,1.16-1.497,1.16h-1.429V32z M58.946,33.866c0.647,0,0.983-0.285,0.983-0.799
		c0-0.513-0.345-0.748-1.017-0.748h-0.95v1.547H58.946z M59.005,35.876c0.799,0,1.161-0.32,1.161-0.832
		c0-0.564-0.429-0.85-1.169-0.85h-1.034v1.682H59.005z"/>
	<path fill="#1D1D1B" d="M66.444,33.639h0.277v-0.143c0-0.934-0.479-1.254-1.152-1.254c-0.429,0-0.857,0.144-1.202,0.404
		l-0.202-0.286c0.328-0.286,0.891-0.462,1.42-0.462c0.967,0,1.488,0.537,1.488,1.588v2.717h-0.353v-0.555
		c0-0.228,0.034-0.379,0.034-0.379h-0.017c-0.21,0.547-0.74,1.034-1.471,1.034c-0.681,0-1.429-0.378-1.429-1.22
		C63.838,33.656,65.696,33.639,66.444,33.639z M65.284,35.976c0.916,0,1.438-0.95,1.438-1.782v-0.227h-0.269
		c-0.715,0-2.245,0-2.245,1.092C64.208,35.506,64.569,35.976,65.284,35.976z"/>
	<path fill="#1D1D1B" d="M71.016,32h0.353v1.874h2.75V32h0.354v4.204h-0.354v-2.002h-2.75v2.002h-0.353V32z"/>
	<path fill="#1D1D1B" d="M78.456,32h0.353v1.874h2.75V32h0.354v4.204h-0.354v-2.002h-2.75v2.002h-0.353V32z"/>
	<path fill="#1D1D1B" d="M85.894,32h0.354v1.681h0.967c0.647,0,1.421,0.244,1.421,1.27c0,0.74-0.471,1.254-1.438,1.254h-1.304V32z
		 M87.198,35.876c0.765,0,1.067-0.379,1.067-0.926c0-0.57-0.311-0.941-1.051-0.941h-0.967v1.867H87.198z M89.409,32h0.354v4.204
		h-0.354V32z"/>
	<path fill="#1D1D1B" d="M95.495,31.899c1.144,0,1.715,0.898,1.715,1.916c0,0.068-0.009,0.152-0.017,0.228h-3.371
		c0,1.22,0.823,1.917,1.799,1.917c0.471,0,0.967-0.193,1.303-0.529l0.193,0.294c-0.369,0.353-0.958,0.58-1.496,0.58
		c-1.186,0-2.17-0.858-2.17-2.194C93.451,32.689,94.419,31.899,95.495,31.899z M96.84,33.715c-0.042-1.025-0.656-1.487-1.354-1.487
		c-0.773,0-1.488,0.504-1.639,1.487H96.84z"/>
	<path fill="#1D1D1B" d="M105.64,37.633c0.403,0,0.656-0.361,0.824-0.757l0.303-0.697L105.027,32h0.377l1.388,3.354
		c0.085,0.201,0.151,0.395,0.151,0.395h0.018c0,0,0.059-0.193,0.143-0.395L108.49,32h0.379l-2.161,5.188
		c-0.185,0.437-0.538,0.782-1.067,0.782c-0.404,0-0.682-0.236-0.682-0.236l0.16-0.303C105.119,37.43,105.354,37.633,105.64,37.633z"
		/>
	<path fill="#1D1D1B" d="M112.373,32h2.389v0.319h-2.035v3.885h-0.354V32z"/>
	<path fill="#1D1D1B" d="M117.4,35.909c0.791-0.126,1.06-1.076,1.06-2.656V32h2.354v4.204h-0.354v-3.877h-1.648v0.926
		c0,2.051-0.471,2.875-1.412,2.984V35.909z"/>
	<path fill="#1D1D1B" d="M124.798,32h0.353v2.993c0,0.285-0.024,0.681-0.024,0.681h0.017c0,0,0.295-0.421,0.479-0.681L127.917,32
		h0.328v4.204h-0.353v-3.002c0-0.286,0.024-0.656,0.024-0.656H127.9c0,0-0.295,0.396-0.479,0.656l-2.295,3.002h-0.328V32z"/>
</g>
</svg>
