<?xml version="1.0" encoding="utf-8"?>
<!-- Generator: Adobe Illustrator 18.1.1, SVG Export Plug-In . SVG Version: 6.00 Build 0)  -->
<svg version="1.1" id="Слой_1" xmlns="http://www.w3.org/2000/svg" xmlns:xlink="http://www.w3.org/1999/xlink" x="0px" y="0px"
	 viewBox="0 0 111.378 26.823" enable-background="new 0 0 111.378 26.823" xml:space="preserve">
<g>
	<path fill-rule="evenodd" clip-rule="evenodd" fill="#FFFFFF" d="M64.947,20.973c3.879,0,7.045-3.165,7.045-7.045
		c0-3.879-3.165-7.045-7.045-7.045c-2.362,0-4.459,1.174-5.738,2.968V1.034h-1.306v12.894
		C57.902,17.808,61.068,20.973,64.947,20.973L64.947,20.973z M64.947,19.673c-3.163,0-5.744-2.581-5.744-5.744
		c0-3.163,2.581-5.744,5.744-5.744c3.163,0,5.744,2.581,5.744,5.744C70.691,17.092,68.11,19.673,64.947,19.673z"/>
	<path fill-rule="evenodd" clip-rule="evenodd" fill="#FFFFFF" d="M30.546,22.426c4.894-1.279,8.523-5.744,8.523-11.029
		C39.069,5.12,33.95,0,27.672,0c-6.277,0-11.397,5.12-11.397,11.397c0,2.87,1.071,5.498,2.833,7.506
		c-1.453-1.824-2.324-4.132-2.324-6.637v0c0-5.88,4.797-10.677,10.677-10.677v0c4.41,0,8.008,3.597,8.008,8.007
		c0,3.308-2.698,6.005-6.005,6.005c-1.798,0-3.131-1.221-4.931-1.164c-2.158,0.068-3.654,1.506-3.702,3.487
		c-0.034,1.433,0.809,2.887,1.946,3.594C24.992,22.896,28.059,23.075,30.546,22.426z"/>
	<path fill-rule="evenodd" clip-rule="evenodd" fill="#FFFFFF" d="M14.09,13.929c0-3.88-3.165-7.045-7.045-7.045
		C3.165,6.884,0,10.048,0,13.929c0,3.838,3.097,6.976,6.919,7.043v-1.301c-3.106-0.067-5.619-2.621-5.619-5.743
		c0-3.164,2.58-5.744,5.744-5.744c3.164,0,5.744,2.58,5.744,5.744H14.09z"/>
	<path fill-rule="evenodd" clip-rule="evenodd" fill="#FFFFFF" d="M49.183,6.884c3.879,0,7.045,3.165,7.045,7.045
		c0,3.879-3.165,7.045-7.045,7.045c-2.362,0-4.459-1.174-5.738-2.968v8.817h-1.307V13.929C42.138,10.049,45.304,6.884,49.183,6.884
		L49.183,6.884z M49.183,8.184c-3.163,0-5.744,2.581-5.744,5.744c0,3.163,2.581,5.744,5.744,5.744c3.163,0,5.744-2.581,5.744-5.744
		C54.927,10.765,52.346,8.184,49.183,8.184z"/>
	<path fill-rule="evenodd" clip-rule="evenodd" fill="#FFFFFF" d="M80.247,14.582h7.17v-0.653c0-3.88-3.165-7.045-7.045-7.045
		c-3.88,0-7.045,3.165-7.045,7.045c0,3.838,3.097,6.976,6.919,7.043v-1.301c-3.106-0.067-5.619-2.621-5.619-5.743
		c0-3.164,2.58-5.744,5.744-5.744c2.94,0,5.376,2.229,5.705,5.084h-5.831V14.582z"/>
	<polygon fill-rule="evenodd" clip-rule="evenodd" fill="#FFFFFF" points="89.294,7.137 89.294,20.718 90.6,20.718 90.6,14.582 
		98.021,14.582 98.021,20.718 99.327,20.718 99.327,7.137 98.021,7.137 98.021,13.269 90.6,13.269 90.6,7.137 	"/>
	<path fill-rule="evenodd" clip-rule="evenodd" fill="#FFFFFF" d="M105.795,8.444v12.274h1.307V8.444h4.276V7.137
		c-3.288,0-6.572,0-9.859,0v1.306H105.795z"/>
</g>
</svg>
