<?xml version="1.0" encoding="utf-8"?>
<!-- Generator: Adobe Illustrator 18.1.1, SVG Export Plug-In . SVG Version: 6.00 Build 0)  -->
<svg version="1.1" id="Слой_1" xmlns="http://www.w3.org/2000/svg" xmlns:xlink="http://www.w3.org/1999/xlink" x="0px" y="0px"
	 viewBox="116.905 281.696 163.723 163.681" enable-background="new 116.905 281.696 163.723 163.681" xml:space="preserve">
<g>
	<g>
		<path fill="#3683C6" d="M219.408,442.777c35.152-9.192,61.219-41.259,61.219-79.222c0-45.086-36.773-81.858-81.864-81.858
			c-45.086,0-81.858,36.773-81.858,81.858c0,20.614,7.696,39.49,20.346,53.91c-10.438-13.105-16.694-29.681-16.694-47.672l0,0
			c0-42.238,34.454-76.686,76.686-76.686l0,0c31.681,0,57.518,25.836,57.518,57.511c0,23.761-19.374,43.135-43.135,43.135
			c-12.912,0-22.49-8.768-35.42-8.363c-15.498,0.492-26.247,10.818-26.59,25.051c-0.243,10.288,5.808,20.733,13.977,25.811
			C179.514,446.154,201.542,447.444,219.408,442.777z"/>
	</g>
</g>
</svg>
